<svg width="14" height="14" viewBox="0 0 14 14" fill="none" xmlns="http://www.w3.org/2000/svg">
<path fill-rule="evenodd" clip-rule="evenodd" d="M7.31019 0.112898L13.8158 5.42845C14.0304 5.60414 14.0618 5.91945 13.8873 6.13389C13.7116 6.34833 13.3954 6.37906 13.1816 6.20471L13.0152 6.06843V13.499C13.0152 13.7755 12.7906 14 12.5139 14H8.50385C8.37084 14 8.24319 13.9472 8.14962 13.853C8.05539 13.7595 8.00259 13.6312 8.00259 13.499L8.00593 7.98769H5.99756V13.499C5.99756 13.7755 5.773 14 5.4963 14H1.48625C1.20955 14 0.984992 13.7755 0.984992 13.499V6.06843L0.819243 6.20404C0.725675 6.28019 0.613393 6.3176 0.501112 6.3176C0.35675 6.3176 0.213056 6.25481 0.113473 6.13456C-0.0616328 5.92012 -0.030889 5.60481 0.183649 5.42912L6.67526 0.113566C6.86039 -0.0374094 7.12572 -0.0380774 7.31019 0.112898ZM9.0051 12.9979H12.0126V5.24942L6.99339 1.14835L1.98751 5.24741V12.9979H4.99505V7.48666C4.99505 7.2101 5.21961 6.98564 5.4963 6.98564H8.50719C8.64019 6.98564 8.76784 7.03841 8.86141 7.1326C8.95564 7.22613 9.00844 7.35439 9.00844 7.48666L9.0051 12.9979Z" fill="#009966"/>
</svg>
