<svg xmlns="http://www.w3.org/2000/svg" xmlns:xlink="http://www.w3.org/1999/xlink" width="1200" zoomAndPan="magnify" viewBox="0 0 900 187.499995" height="250" preserveAspectRatio="xMidYMid meet" version="1.0"><defs><g/><clipPath id="6fd0b9f4be"><path d="M 1.195312 0 L 898.800781 0 L 898.800781 187 L 1.195312 187 Z M 1.195312 0 " clip-rule="nonzero"/></clipPath><clipPath id="164b3c4038"><path d="M 72.257812 0 L 827.742188 0 C 866.988281 0 898.804688 31.816406 898.804688 71.058594 L 898.804688 115.941406 C 898.804688 155.1875 866.988281 187 827.742188 187 L 72.257812 187 C 33.011719 187 1.195312 155.1875 1.195312 115.941406 L 1.195312 71.058594 C 1.195312 31.816406 33.011719 0 72.257812 0 Z M 72.257812 0 " clip-rule="nonzero"/></clipPath><clipPath id="ca6fda5f5c"><path d="M 0.195312 0 L 897.800781 0 L 897.800781 187 L 0.195312 187 Z M 0.195312 0 " clip-rule="nonzero"/></clipPath><clipPath id="59c9ce6827"><path d="M 71.257812 0 L 826.742188 0 C 865.988281 0 897.804688 31.816406 897.804688 71.058594 L 897.804688 115.941406 C 897.804688 155.1875 865.988281 187 826.742188 187 L 71.257812 187 C 32.011719 187 0.195312 155.1875 0.195312 115.941406 L 0.195312 71.058594 C 0.195312 31.816406 32.011719 0 71.257812 0 Z M 71.257812 0 " clip-rule="nonzero"/></clipPath><clipPath id="4e0139b04c"><rect x="0" width="898" y="0" height="187"/></clipPath><clipPath id="4db7a10224"><path d="M 0.984375 0.53125 L 802.367188 0.53125 L 802.367188 165.691406 L 0.984375 165.691406 Z M 0.984375 0.53125 " clip-rule="nonzero"/></clipPath><clipPath id="79b2023038"><rect x="0" width="803" y="0" height="166"/></clipPath><clipPath id="62bb1250e6"><path d="M 173 41.636719 L 259.929688 41.636719 L 259.929688 128.574219 L 173 128.574219 Z M 173 41.636719 " clip-rule="nonzero"/></clipPath><clipPath id="545fcc8110"><path d="M 177 100 L 226 100 L 226 128.574219 L 177 128.574219 Z M 177 100 " clip-rule="nonzero"/></clipPath><clipPath id="7b54f43de7"><rect x="0" width="803" y="0" height="166"/></clipPath></defs><g clip-path="url(#6fd0b9f4be)"><g clip-path="url(#164b3c4038)"><g transform="matrix(1, 0, 0, 1, 1, 0)"><g clip-path="url(#4e0139b04c)"><g clip-path="url(#ca6fda5f5c)"><g clip-path="url(#59c9ce6827)"><path fill="#006045" d="M 0.195312 0 L 897.949219 0 L 897.949219 187 L 0.195312 187 Z M 0.195312 0 " fill-opacity="1" fill-rule="nonzero"/></g></g></g></g><path stroke-linecap="butt" transform="matrix(0.748005, 0, 0, 0.748005, 1.196821, 0)" fill="none" stroke-linejoin="miter" d="M 95.000656 0 L 1104.999394 0 C 1157.467064 0 1200.002067 42.535003 1200.002067 94.997451 L 1200.002067 155.000789 C 1200.002067 207.468459 1157.467064 249.99824 1104.999394 249.99824 L 95.000656 249.99824 C 42.532986 249.99824 -0.00201696 207.468459 -0.00201696 155.000789 L -0.00201696 94.997451 C -0.00201696 42.535003 42.532986 0 95.000656 0 Z M 95.000656 0 " stroke="#ffffff" stroke-width="8" stroke-opacity="1" stroke-miterlimit="4"/></g></g><g transform="matrix(1, 0, 0, 1, 50, 10)"><g clip-path="url(#7b54f43de7)"><g clip-path="url(#4db7a10224)"><g transform="matrix(1, 0, 0, 1, -0.000000000000014211, -0.000000000000001776)"><g clip-path="url(#79b2023038)"><g fill="#03dba4" fill-opacity="1"><g transform="translate(3.026929, 130.941998)"><g><path d="M 44.550781 -19.730469 C 46.300781 -19.730469 48.238281 -20.015625 50.367188 -20.589844 C 52.183594 -21.074219 53.734375 -21.867188 55.023438 -22.964844 C 55.695312 -23.542969 56.035156 -24.410156 56.035156 -25.574219 C 56.035156 -26.476562 55.699219 -27.191406 55.035156 -27.71875 C 53.5625 -28.882812 51.523438 -29.875 48.917969 -30.695312 C 45.839844 -31.660156 42.464844 -32.566406 38.792969 -33.40625 C 34.847656 -34.308594 30.875 -35.402344 26.886719 -36.6875 C 22.625 -38.054688 18.707031 -39.863281 15.132812 -42.109375 C 11.242188 -44.554688 8.105469 -47.722656 5.710938 -51.617188 C 3.234375 -55.652344 1.992188 -60.632812 1.992188 -66.550781 C 1.992188 -72.324219 3.226562 -77.371094 5.699219 -81.691406 C 8.097656 -85.894531 11.289062 -89.382812 15.265625 -92.160156 C 19.097656 -94.839844 23.386719 -96.828125 28.128906 -98.132812 C 32.746094 -99.402344 37.394531 -100.035156 42.078125 -100.035156 C 49.09375 -100.035156 55.683594 -98.925781 61.839844 -96.703125 C 68.332031 -94.363281 73.644531 -90.644531 77.777344 -85.542969 C 82.042969 -80.28125 84.28125 -73.492188 84.496094 -65.171875 L 84.632812 -59.882812 L 54.796875 -59.882812 L 54.277344 -64.460938 C 53.910156 -67.722656 52.972656 -69.851562 51.46875 -70.84375 C 49.492188 -72.15625 46.453125 -72.808594 42.351562 -72.808594 C 40.929688 -72.808594 39.378906 -72.558594 37.703125 -72.0625 C 36.332031 -71.652344 35.183594 -71.015625 34.261719 -70.152344 C 33.835938 -69.75 33.621094 -69.097656 33.621094 -68.203125 C 33.621094 -67.859375 33.671875 -67.589844 33.769531 -67.402344 C 33.871094 -67.203125 34.074219 -67 34.371094 -66.792969 C 35.871094 -65.746094 37.949219 -64.84375 40.605469 -64.085938 C 43.703125 -63.199219 47.121094 -62.359375 50.859375 -61.558594 C 54.863281 -60.699219 58.84375 -59.648438 62.800781 -58.410156 C 67.046875 -57.082031 70.96875 -55.257812 74.566406 -52.945312 C 78.453125 -50.445312 81.589844 -47.199219 83.972656 -43.207031 C 86.429688 -39.09375 87.660156 -33.996094 87.660156 -27.914062 C 87.660156 -21.5 86.332031 -15.972656 83.679688 -11.328125 C 81.054688 -6.734375 77.519531 -3.039062 73.082031 -0.242188 C 68.886719 2.398438 64.195312 4.335938 59.011719 5.566406 C 53.992188 6.761719 48.898438 7.355469 43.726562 7.355469 C 36.207031 7.355469 29.140625 6.070312 22.535156 3.5 C 15.632812 0.8125 10.03125 -3.34375 5.734375 -8.96875 C 1.328125 -14.734375 -0.925781 -21.992188 -1.03125 -30.738281 L -1.09375 -35.957031 L 29.933594 -35.957031 L 30.175781 -31.054688 C 30.367188 -27.175781 31.679688 -24.410156 34.109375 -22.761719 C 37.085938 -20.742188 40.566406 -19.730469 44.550781 -19.730469 Z M 44.550781 -9.417969 C 38.453125 -9.417969 33.042969 -11.023438 28.316406 -14.226562 C 23.050781 -17.804688 20.234375 -23.242188 19.875 -30.546875 L 25.027344 -30.800781 L 25.027344 -25.644531 L 4.125 -25.644531 L 4.125 -30.800781 L 9.28125 -30.863281 C 9.359375 -24.394531 10.910156 -19.183594 13.929688 -15.230469 C 17.054688 -11.140625 21.171875 -8.097656 26.277344 -6.113281 C 31.679688 -4.007812 37.496094 -2.957031 43.726562 -2.957031 C 48.089844 -2.957031 52.390625 -3.460938 56.628906 -4.46875 C 60.703125 -5.433594 64.355469 -6.9375 67.585938 -8.96875 C 70.574219 -10.851562 72.953125 -13.34375 74.726562 -16.445312 C 76.472656 -19.503906 77.347656 -23.328125 77.347656 -27.914062 C 77.347656 -32.097656 76.605469 -35.433594 75.121094 -37.921875 C 73.5625 -40.527344 71.519531 -42.644531 68.988281 -44.269531 C 66.171875 -46.082031 63.078125 -47.515625 59.71875 -48.570312 C 56.066406 -49.714844 52.390625 -50.679688 48.695312 -51.472656 C 44.734375 -52.320312 41.09375 -53.21875 37.773438 -54.167969 C 34.011719 -55.242188 30.910156 -56.632812 28.46875 -58.335938 C 26.796875 -59.503906 25.519531 -60.929688 24.636719 -62.609375 C 23.75 -64.300781 23.308594 -66.164062 23.308594 -68.203125 C 23.308594 -72.074219 24.605469 -75.226562 27.203125 -77.667969 C 29.308594 -79.644531 31.828125 -81.070312 34.761719 -81.945312 C 37.394531 -82.730469 39.925781 -83.121094 42.351562 -83.121094 C 48.519531 -83.121094 53.453125 -81.898438 57.160156 -79.449219 C 61.339844 -76.683594 63.796875 -72.074219 64.527344 -65.621094 L 59.402344 -65.039062 L 59.402344 -70.195312 L 79.339844 -70.195312 L 79.339844 -65.039062 L 74.1875 -64.90625 C 74.03125 -70.890625 72.558594 -75.605469 69.765625 -79.050781 C 66.839844 -82.660156 63.03125 -85.3125 58.339844 -87.003906 C 53.3125 -88.816406 47.894531 -89.722656 42.078125 -89.722656 C 38.324219 -89.722656 34.585938 -89.210938 30.859375 -88.1875 C 27.261719 -87.199219 24.03125 -85.707031 21.171875 -83.707031 C 18.460938 -81.8125 16.285156 -79.433594 14.652344 -76.574219 C 13.089844 -73.839844 12.308594 -70.5 12.308594 -66.550781 C 12.308594 -62.574219 13.039062 -59.394531 14.5 -57.015625 C 16.050781 -54.488281 18.089844 -52.433594 20.621094 -50.84375 C 23.460938 -49.054688 26.601562 -47.609375 30.042969 -46.503906 C 33.75 -45.3125 37.4375 -44.296875 41.097656 -43.460938 C 45.035156 -42.558594 48.671875 -41.582031 52.011719 -40.535156 C 55.824219 -39.335938 58.964844 -37.761719 61.433594 -35.808594 C 64.707031 -33.21875 66.347656 -29.808594 66.347656 -25.574219 C 66.347656 -21.242188 64.804688 -17.757812 61.71875 -15.121094 C 59.25 -13.011719 56.355469 -11.515625 53.035156 -10.625 C 50.03125 -9.820312 47.203125 -9.417969 44.550781 -9.417969 Z M 44.550781 -9.417969 "/></g></g></g><g fill="#03dba4" fill-opacity="1"><g transform="translate(89.653515, 130.941998)"><g><path d="M 34.03125 -33.414062 L 34.03125 5.15625 L 3.09375 5.15625 L 3.09375 -98.660156 L 43.3125 -98.660156 C 49.28125 -98.660156 54.839844 -97.167969 59.992188 -94.183594 C 65.125 -91.214844 69.25 -87.09375 72.367188 -81.828125 C 75.503906 -76.527344 77.070312 -70.425781 77.070312 -63.527344 C 77.070312 -56.261719 75.503906 -49.976562 72.367188 -44.675781 C 69.226562 -39.371094 65.066406 -35.300781 59.882812 -32.464844 C 54.757812 -29.660156 49.234375 -28.257812 43.3125 -28.257812 L 28.875 -28.257812 L 28.875 -33.414062 Z M 23.71875 -38.570312 L 43.3125 -38.570312 C 47.476562 -38.570312 51.351562 -39.550781 54.933594 -41.511719 C 58.460938 -43.441406 61.3125 -46.25 63.488281 -49.929688 C 65.667969 -53.609375 66.757812 -58.144531 66.757812 -63.527344 C 66.757812 -68.546875 65.667969 -72.894531 63.488281 -76.578125 C 61.289062 -80.296875 58.402344 -83.1875 54.824219 -85.257812 C 51.269531 -87.316406 47.433594 -88.347656 43.3125 -88.347656 L 8.25 -88.347656 L 8.25 -93.503906 L 13.40625 -93.503906 L 13.40625 0 L 8.25 0 L 8.25 -5.15625 L 28.875 -5.15625 L 28.875 0 L 23.71875 0 Z M 39.875 -72.121094 L 28.875 -72.121094 L 28.875 -77.277344 L 34.03125 -77.277344 L 34.03125 -49.640625 L 28.875 -49.640625 L 28.875 -54.796875 L 39.875 -54.796875 C 41.570312 -54.796875 43.230469 -55.539062 44.859375 -57.023438 C 46.347656 -58.386719 47.09375 -60.554688 47.09375 -63.527344 C 47.09375 -66.339844 46.335938 -68.449219 44.820312 -69.859375 C 43.199219 -71.367188 41.550781 -72.121094 39.875 -72.121094 Z M 39.875 -82.433594 C 44.253906 -82.433594 48.242188 -80.761719 51.84375 -77.410156 C 55.554688 -73.960938 57.410156 -69.332031 57.410156 -63.527344 C 57.410156 -57.519531 55.542969 -52.8125 51.808594 -49.40625 C 48.210938 -46.125 44.234375 -44.484375 39.875 -44.484375 L 23.71875 -44.484375 L 23.71875 -82.433594 Z M 39.875 -82.433594 "/></g></g></g><g fill="#03dba4" fill-opacity="1"><g transform="translate(163.629877, 130.941998)"><g><path d="M 75.285156 -46.890625 C 75.285156 -50.773438 74.253906 -54.390625 72.199219 -57.730469 C 70.0625 -61.203125 67.253906 -64.011719 63.78125 -66.148438 C 60.4375 -68.207031 56.824219 -69.234375 52.941406 -69.234375 C 49.136719 -69.234375 45.539062 -68.199219 42.144531 -66.136719 C 38.636719 -64 35.8125 -61.199219 33.679688 -57.730469 C 31.625 -54.390625 30.59375 -50.773438 30.59375 -46.890625 C 30.59375 -43.085938 31.628906 -39.488281 33.695312 -36.09375 C 35.832031 -32.582031 38.660156 -29.734375 42.179688 -27.554688 C 45.566406 -25.457031 49.152344 -24.40625 52.941406 -24.40625 C 56.808594 -24.40625 60.414062 -25.453125 63.746094 -27.539062 C 67.230469 -29.722656 70.042969 -32.574219 72.1875 -36.09375 C 74.25 -39.488281 75.285156 -43.085938 75.285156 -46.890625 Z M 85.597656 -46.890625 C 85.597656 -41.160156 84.0625 -35.773438 80.996094 -30.734375 C 78.007812 -25.820312 74.082031 -21.84375 69.222656 -18.800781 C 64.214844 -15.664062 58.785156 -14.09375 52.941406 -14.09375 C 47.195312 -14.09375 41.796875 -15.65625 36.75 -18.785156 C 31.832031 -21.832031 27.878906 -25.8125 24.882812 -30.734375 C 21.816406 -35.773438 20.28125 -41.160156 20.28125 -46.890625 C 20.28125 -52.722656 21.820312 -58.136719 24.898438 -63.136719 C 27.898438 -68.011719 31.859375 -71.949219 36.78125 -74.945312 C 41.824219 -78.011719 47.207031 -79.546875 52.941406 -79.546875 C 58.769531 -79.546875 64.1875 -78.007812 69.1875 -74.933594 C 74.054688 -71.9375 77.988281 -68.003906 80.980469 -63.136719 C 84.058594 -58.136719 85.597656 -52.722656 85.597656 -46.890625 Z M 106.222656 -46.75 C 106.222656 -39.609375 104.792969 -32.796875 101.933594 -26.3125 C 99.109375 -19.90625 95.246094 -14.25 90.34375 -9.347656 C 85.445312 -4.449219 79.816406 -0.589844 73.460938 2.238281 C 67.019531 5.101562 60.179688 6.53125 52.941406 6.53125 C 45.796875 6.53125 38.984375 5.101562 32.503906 2.242188 C 26.09375 -0.582031 20.4375 -4.445312 15.535156 -9.347656 C 10.632812 -14.25 6.769531 -19.90625 3.945312 -26.3125 C 1.085938 -32.796875 -0.34375 -39.609375 -0.34375 -46.75 C -0.34375 -53.988281 1.085938 -60.832031 3.949219 -67.273438 C 6.777344 -73.628906 10.636719 -79.257812 15.535156 -84.15625 C 20.4375 -89.058594 26.09375 -92.921875 32.503906 -95.746094 C 38.984375 -98.605469 45.796875 -100.035156 52.941406 -100.035156 C 60.179688 -100.035156 67.019531 -98.605469 73.460938 -95.742188 C 79.816406 -92.914062 85.445312 -89.054688 90.34375 -84.15625 C 95.242188 -79.257812 99.101562 -73.628906 101.929688 -67.273438 C 104.792969 -60.828125 106.222656 -53.988281 106.222656 -46.75 Z M 95.910156 -46.75 C 95.910156 -52.53125 94.773438 -57.976562 92.503906 -63.082031 C 90.195312 -68.273438 87.046875 -72.867188 83.050781 -76.863281 C 79.054688 -80.859375 74.464844 -84.007812 69.269531 -86.316406 C 64.164062 -88.585938 58.71875 -89.722656 52.941406 -89.722656 C 47.246094 -89.722656 41.820312 -88.585938 36.664062 -86.308594 C 31.429688 -84.003906 26.820312 -80.855469 22.828125 -76.863281 C 18.832031 -72.867188 15.683594 -68.273438 13.375 -63.082031 C 11.105469 -57.976562 9.96875 -52.53125 9.96875 -46.75 C 9.96875 -41.058594 11.105469 -35.632812 13.382812 -30.476562 C 15.6875 -25.242188 18.835938 -20.632812 22.828125 -16.640625 C 26.820312 -12.648438 31.429688 -9.5 36.664062 -7.195312 C 41.820312 -4.917969 47.246094 -3.78125 52.941406 -3.78125 C 58.71875 -3.78125 64.164062 -4.917969 69.269531 -7.1875 C 74.464844 -9.496094 79.054688 -12.644531 83.050781 -16.640625 C 87.042969 -20.632812 90.191406 -25.242188 92.5 -30.476562 C 94.773438 -35.632812 95.910156 -41.058594 95.910156 -46.75 Z M 95.910156 -46.75 "/></g></g></g><g fill="#03dba4" fill-opacity="1"><g transform="translate(269.506817, 130.941998)"><g><path d="M 34.03125 -33.414062 L 34.03125 5.15625 L 3.09375 5.15625 L 3.09375 -98.660156 L 43.3125 -98.660156 C 49.28125 -98.660156 54.839844 -97.167969 59.992188 -94.183594 C 65.125 -91.214844 69.25 -87.09375 72.367188 -81.828125 C 75.503906 -76.527344 77.070312 -70.425781 77.070312 -63.527344 C 77.070312 -57.523438 75.941406 -52.15625 73.679688 -47.417969 C 71.417969 -42.671875 68.371094 -38.773438 64.550781 -35.710938 C 60.761719 -32.683594 56.539062 -30.574219 51.878906 -29.378906 L 50.601562 -34.375 L 54.667969 -37.546875 L 87.976562 5.15625 L 48.53125 5.15625 L 24.722656 -30.554688 L 29.015625 -33.414062 L 29.015625 -28.257812 L 28.875 -28.257812 L 28.875 -33.414062 Z M 23.71875 -38.570312 L 31.773438 -38.570312 L 55.582031 -2.859375 L 51.289062 0 L 51.289062 -5.15625 L 77.414062 -5.15625 L 77.414062 0 L 73.351562 3.171875 L 41.6875 -37.417969 L 49.324219 -39.371094 C 52.546875 -40.195312 55.476562 -41.660156 58.105469 -43.765625 C 60.699219 -45.839844 62.789062 -48.539062 64.375 -51.859375 C 65.964844 -55.191406 66.757812 -59.082031 66.757812 -63.527344 C 66.757812 -68.546875 65.667969 -72.894531 63.488281 -76.578125 C 61.289062 -80.296875 58.402344 -83.1875 54.824219 -85.257812 C 51.269531 -87.316406 47.433594 -88.347656 43.3125 -88.347656 L 8.25 -88.347656 L 8.25 -93.503906 L 13.40625 -93.503906 L 13.40625 0 L 8.25 0 L 8.25 -5.15625 L 28.875 -5.15625 L 28.875 0 L 23.71875 0 Z M 39.875 -72.121094 L 28.875 -72.121094 L 28.875 -77.277344 L 34.03125 -77.277344 L 34.03125 -49.640625 L 28.875 -49.640625 L 28.875 -54.796875 L 39.875 -54.796875 C 41.570312 -54.796875 43.230469 -55.539062 44.859375 -57.023438 C 46.347656 -58.386719 47.09375 -60.554688 47.09375 -63.527344 C 47.09375 -66.339844 46.335938 -68.449219 44.820312 -69.859375 C 43.199219 -71.367188 41.550781 -72.121094 39.875 -72.121094 Z M 39.875 -82.433594 C 44.253906 -82.433594 48.242188 -80.761719 51.84375 -77.410156 C 55.554688 -73.960938 57.410156 -69.332031 57.410156 -63.527344 C 57.410156 -57.519531 55.542969 -52.8125 51.808594 -49.40625 C 48.210938 -46.125 44.234375 -44.484375 39.875 -44.484375 L 23.71875 -44.484375 L 23.71875 -82.433594 Z M 39.875 -82.433594 "/></g></g></g><g fill="#03dba4" fill-opacity="1"><g transform="translate(345.270714, 130.941998)"><g><path d="M 53.144531 -74.804688 L 53.144531 5.15625 L 22.207031 5.15625 L 22.207031 -74.804688 L 27.363281 -74.804688 L 27.363281 -69.644531 L -4.46875 -69.644531 L -4.46875 -98.660156 L 79.820312 -98.660156 L 79.820312 -69.644531 L 47.988281 -69.644531 L 47.988281 -74.804688 Z M 42.832031 -79.960938 L 74.664062 -79.960938 L 74.664062 -74.804688 L 69.507812 -74.804688 L 69.507812 -93.503906 L 74.664062 -93.503906 L 74.664062 -88.347656 L 0.6875 -88.347656 L 0.6875 -93.503906 L 5.84375 -93.503906 L 5.84375 -74.804688 L 0.6875 -74.804688 L 0.6875 -79.960938 L 32.519531 -79.960938 L 32.519531 0 L 27.363281 0 L 27.363281 -5.15625 L 47.988281 -5.15625 L 47.988281 0 L 42.832031 0 Z M 42.832031 -79.960938 "/></g></g></g><g fill="#03dba4" fill-opacity="1"><g transform="translate(420.622077, 130.941998)"><g><path d="M 44.550781 -19.730469 C 46.300781 -19.730469 48.238281 -20.015625 50.367188 -20.589844 C 52.183594 -21.074219 53.734375 -21.867188 55.023438 -22.964844 C 55.695312 -23.542969 56.035156 -24.410156 56.035156 -25.574219 C 56.035156 -26.476562 55.699219 -27.191406 55.035156 -27.71875 C 53.5625 -28.882812 51.523438 -29.875 48.917969 -30.695312 C 45.839844 -31.660156 42.464844 -32.566406 38.792969 -33.40625 C 34.847656 -34.308594 30.875 -35.402344 26.886719 -36.6875 C 22.625 -38.054688 18.707031 -39.863281 15.132812 -42.109375 C 11.242188 -44.554688 8.105469 -47.722656 5.710938 -51.617188 C 3.234375 -55.652344 1.992188 -60.632812 1.992188 -66.550781 C 1.992188 -72.324219 3.226562 -77.371094 5.699219 -81.691406 C 8.097656 -85.894531 11.289062 -89.382812 15.265625 -92.160156 C 19.097656 -94.839844 23.386719 -96.828125 28.128906 -98.132812 C 32.746094 -99.402344 37.394531 -100.035156 42.078125 -100.035156 C 49.09375 -100.035156 55.683594 -98.925781 61.839844 -96.703125 C 68.332031 -94.363281 73.644531 -90.644531 77.777344 -85.542969 C 82.042969 -80.28125 84.28125 -73.492188 84.496094 -65.171875 L 84.632812 -59.882812 L 54.796875 -59.882812 L 54.277344 -64.460938 C 53.910156 -67.722656 52.972656 -69.851562 51.46875 -70.84375 C 49.492188 -72.15625 46.453125 -72.808594 42.351562 -72.808594 C 40.929688 -72.808594 39.378906 -72.558594 37.703125 -72.0625 C 36.332031 -71.652344 35.183594 -71.015625 34.261719 -70.152344 C 33.835938 -69.75 33.621094 -69.097656 33.621094 -68.203125 C 33.621094 -67.859375 33.671875 -67.589844 33.769531 -67.402344 C 33.871094 -67.203125 34.074219 -67 34.371094 -66.792969 C 35.871094 -65.746094 37.949219 -64.84375 40.605469 -64.085938 C 43.703125 -63.199219 47.121094 -62.359375 50.859375 -61.558594 C 54.863281 -60.699219 58.84375 -59.648438 62.800781 -58.410156 C 67.046875 -57.082031 70.96875 -55.257812 74.566406 -52.945312 C 78.453125 -50.445312 81.589844 -47.199219 83.972656 -43.207031 C 86.429688 -39.09375 87.660156 -33.996094 87.660156 -27.914062 C 87.660156 -21.5 86.332031 -15.972656 83.679688 -11.328125 C 81.054688 -6.734375 77.519531 -3.039062 73.082031 -0.242188 C 68.886719 2.398438 64.195312 4.335938 59.011719 5.566406 C 53.992188 6.761719 48.898438 7.355469 43.726562 7.355469 C 36.207031 7.355469 29.140625 6.070312 22.535156 3.5 C 15.632812 0.8125 10.03125 -3.34375 5.734375 -8.96875 C 1.328125 -14.734375 -0.925781 -21.992188 -1.03125 -30.738281 L -1.09375 -35.957031 L 29.933594 -35.957031 L 30.175781 -31.054688 C 30.367188 -27.175781 31.679688 -24.410156 34.109375 -22.761719 C 37.085938 -20.742188 40.566406 -19.730469 44.550781 -19.730469 Z M 44.550781 -9.417969 C 38.453125 -9.417969 33.042969 -11.023438 28.316406 -14.226562 C 23.050781 -17.804688 20.234375 -23.242188 19.875 -30.546875 L 25.027344 -30.800781 L 25.027344 -25.644531 L 4.125 -25.644531 L 4.125 -30.800781 L 9.28125 -30.863281 C 9.359375 -24.394531 10.910156 -19.183594 13.929688 -15.230469 C 17.054688 -11.140625 21.171875 -8.097656 26.277344 -6.113281 C 31.679688 -4.007812 37.496094 -2.957031 43.726562 -2.957031 C 48.089844 -2.957031 52.390625 -3.460938 56.628906 -4.46875 C 60.703125 -5.433594 64.355469 -6.9375 67.585938 -8.96875 C 70.574219 -10.851562 72.953125 -13.34375 74.726562 -16.445312 C 76.472656 -19.503906 77.347656 -23.328125 77.347656 -27.914062 C 77.347656 -32.097656 76.605469 -35.433594 75.121094 -37.921875 C 73.5625 -40.527344 71.519531 -42.644531 68.988281 -44.269531 C 66.171875 -46.082031 63.078125 -47.515625 59.71875 -48.570312 C 56.066406 -49.714844 52.390625 -50.679688 48.695312 -51.472656 C 44.734375 -52.320312 41.09375 -53.21875 37.773438 -54.167969 C 34.011719 -55.242188 30.910156 -56.632812 28.46875 -58.335938 C 26.796875 -59.503906 25.519531 -60.929688 24.636719 -62.609375 C 23.75 -64.300781 23.308594 -66.164062 23.308594 -68.203125 C 23.308594 -72.074219 24.605469 -75.226562 27.203125 -77.667969 C 29.308594 -79.644531 31.828125 -81.070312 34.761719 -81.945312 C 37.394531 -82.730469 39.925781 -83.121094 42.351562 -83.121094 C 48.519531 -83.121094 53.453125 -81.898438 57.160156 -79.449219 C 61.339844 -76.683594 63.796875 -72.074219 64.527344 -65.621094 L 59.402344 -65.039062 L 59.402344 -70.195312 L 79.339844 -70.195312 L 79.339844 -65.039062 L 74.1875 -64.90625 C 74.03125 -70.890625 72.558594 -75.605469 69.765625 -79.050781 C 66.839844 -82.660156 63.03125 -85.3125 58.339844 -87.003906 C 53.3125 -88.816406 47.894531 -89.722656 42.078125 -89.722656 C 38.324219 -89.722656 34.585938 -89.210938 30.859375 -88.1875 C 27.261719 -87.199219 24.03125 -85.707031 21.171875 -83.707031 C 18.460938 -81.8125 16.285156 -79.433594 14.652344 -76.574219 C 13.089844 -73.839844 12.308594 -70.5 12.308594 -66.550781 C 12.308594 -62.574219 13.039062 -59.394531 14.5 -57.015625 C 16.050781 -54.488281 18.089844 -52.433594 20.621094 -50.84375 C 23.460938 -49.054688 26.601562 -47.609375 30.042969 -46.503906 C 33.75 -45.3125 37.4375 -44.296875 41.097656 -43.460938 C 45.035156 -42.558594 48.671875 -41.582031 52.011719 -40.535156 C 55.824219 -39.335938 58.964844 -37.761719 61.433594 -35.808594 C 64.707031 -33.21875 66.347656 -29.808594 66.347656 -25.574219 C 66.347656 -21.242188 64.804688 -17.757812 61.71875 -15.121094 C 59.25 -13.011719 56.355469 -11.515625 53.035156 -10.625 C 50.03125 -9.820312 47.203125 -9.417969 44.550781 -9.417969 Z M 44.550781 -9.417969 "/></g></g></g><g fill="#03dba4" fill-opacity="1"><g transform="translate(507.248663, 130.941998)"><g/></g></g><g fill="#03dba4" fill-opacity="1"><g transform="translate(541.624292, 130.941998)"><g><path d="M 59.675781 -98.660156 L 86.835938 -98.660156 L 86.835938 5.15625 L 54.519531 5.15625 L 54.519531 -37.539062 L 59.675781 -37.539062 L 59.675781 -32.382812 L 28.875 -32.382812 L 28.875 -37.539062 L 34.03125 -37.539062 L 34.03125 5.15625 L 3.09375 5.15625 L 3.09375 -98.660156 L 34.03125 -98.660156 L 34.03125 -56.238281 L 28.875 -56.238281 L 28.875 -61.394531 L 59.675781 -61.394531 L 59.675781 -56.238281 L 54.519531 -56.238281 L 54.519531 -98.660156 Z M 59.675781 -88.347656 L 59.675781 -93.503906 L 64.835938 -93.503906 L 64.835938 -51.082031 L 23.71875 -51.082031 L 23.71875 -93.503906 L 28.875 -93.503906 L 28.875 -88.347656 L 8.25 -88.347656 L 8.25 -93.503906 L 13.40625 -93.503906 L 13.40625 0 L 8.25 0 L 8.25 -5.15625 L 28.875 -5.15625 L 28.875 0 L 23.71875 0 L 23.71875 -42.695312 L 64.835938 -42.695312 L 64.835938 0 L 59.675781 0 L 59.675781 -5.15625 L 81.679688 -5.15625 L 81.679688 0 L 76.523438 0 L 76.523438 -93.503906 L 81.679688 -93.503906 L 81.679688 -88.347656 Z M 59.675781 -88.347656 "/></g></g></g><g fill="#03dba4" fill-opacity="1"><g transform="translate(631.550968, 130.941998)"><g><path d="M 62.839844 -98.660156 L 88.621094 -98.660156 L 88.621094 -36.4375 C 88.621094 -22.484375 84.6875 -11.8125 76.820312 -4.421875 C 69.042969 2.878906 58.378906 6.53125 44.828125 6.53125 C 31.273438 6.53125 20.609375 2.878906 12.832031 -4.421875 C 4.964844 -11.8125 1.03125 -22.484375 1.03125 -36.4375 L 1.03125 -98.660156 L 31.96875 -98.660156 L 31.96875 -39.464844 C 31.96875 -34.148438 32.910156 -30.175781 34.792969 -27.542969 C 36.285156 -25.453125 39.628906 -24.40625 44.828125 -24.40625 C 50.097656 -24.40625 53.457031 -25.441406 54.90625 -27.503906 C 56.757812 -30.144531 57.683594 -34.132812 57.683594 -39.464844 L 57.683594 -98.660156 Z M 62.839844 -88.347656 L 62.839844 -93.503906 L 67.996094 -93.503906 L 67.996094 -39.464844 C 67.996094 -31.960938 66.449219 -26 63.347656 -21.582031 C 59.847656 -16.589844 53.671875 -14.09375 44.828125 -14.09375 C 36.089844 -14.09375 29.949219 -16.578125 26.398438 -21.546875 C 23.238281 -25.972656 21.65625 -31.945312 21.65625 -39.464844 L 21.65625 -93.503906 L 26.8125 -93.503906 L 26.8125 -88.347656 L 6.1875 -88.347656 L 6.1875 -93.503906 L 11.34375 -93.503906 L 11.34375 -36.4375 C 11.34375 -25.460938 14.195312 -17.292969 19.894531 -11.941406 C 25.683594 -6.5 33.996094 -3.78125 44.828125 -3.78125 C 55.65625 -3.78125 63.96875 -6.5 69.761719 -11.941406 C 75.460938 -17.292969 78.308594 -25.460938 78.308594 -36.4375 L 78.308594 -93.503906 L 83.464844 -93.503906 L 83.464844 -88.347656 Z M 62.839844 -88.347656 "/></g></g></g><g fill="#03dba4" fill-opacity="1"><g transform="translate(721.202588, 130.941998)"><g><path d="M 48.195312 -27.363281 C 48.195312 -28.964844 47.574219 -30.386719 46.335938 -31.625 C 45.097656 -32.863281 43.632812 -33.480469 41.9375 -33.480469 L 28.875 -33.480469 L 28.875 -38.640625 L 34.03125 -38.640625 L 34.03125 -16.089844 L 28.875 -16.089844 L 28.875 -21.246094 L 41.9375 -21.246094 C 43.652344 -21.246094 45.132812 -21.855469 46.375 -23.070312 C 47.589844 -24.261719 48.195312 -25.691406 48.195312 -27.363281 Z M 58.507812 -27.363281 C 58.507812 -22.800781 56.871094 -18.914062 53.59375 -15.703125 C 50.34375 -12.523438 46.460938 -10.929688 41.9375 -10.929688 L 23.71875 -10.929688 L 23.71875 -43.796875 L 41.9375 -43.796875 C 46.480469 -43.796875 50.375 -42.167969 53.628906 -38.917969 C 56.882812 -35.664062 58.507812 -31.8125 58.507812 -27.363281 Z M 41.734375 -66.414062 C 41.734375 -67.996094 41.171875 -69.332031 40.050781 -70.429688 C 38.898438 -71.558594 37.558594 -72.121094 36.027344 -72.121094 L 28.875 -72.121094 L 28.875 -77.277344 L 34.03125 -77.277344 L 34.03125 -55.550781 L 28.875 -55.550781 L 28.875 -60.707031 L 36.027344 -60.707031 C 37.535156 -60.707031 38.863281 -61.28125 40.011719 -62.429688 C 41.160156 -63.578125 41.734375 -64.90625 41.734375 -66.414062 Z M 52.046875 -66.414062 C 52.046875 -62.058594 50.464844 -58.296875 47.304688 -55.136719 C 44.144531 -51.976562 40.382812 -50.394531 36.027344 -50.394531 L 23.71875 -50.394531 L 23.71875 -82.433594 L 36.027344 -82.433594 C 40.363281 -82.433594 44.109375 -80.890625 47.265625 -77.800781 C 50.453125 -74.679688 52.046875 -70.886719 52.046875 -66.414062 Z M 79.546875 -26.8125 C 79.546875 -17.3125 76.5625 -9.605469 70.59375 -3.691406 C 64.640625 2.207031 56.460938 5.15625 46.0625 5.15625 L 3.09375 5.15625 L 3.09375 -98.660156 L 40.425781 -98.660156 C 46.613281 -98.660156 52.039062 -97.398438 56.699219 -94.875 C 61.410156 -92.328125 65.085938 -88.890625 67.722656 -84.570312 C 70.378906 -80.21875 71.710938 -75.402344 71.710938 -70.128906 C 71.710938 -64.445312 70.496094 -59.488281 68.070312 -55.257812 C 65.542969 -50.847656 62.027344 -47.636719 57.519531 -45.621094 L 55.414062 -50.328125 L 56.5625 -55.355469 C 62.839844 -53.921875 68.195312 -50.769531 72.636719 -45.890625 C 77.242188 -40.828125 79.546875 -34.46875 79.546875 -26.8125 Z M 69.234375 -26.8125 C 69.234375 -31.808594 67.824219 -35.855469 65.007812 -38.949219 C 62.019531 -42.230469 58.441406 -44.347656 54.269531 -45.300781 L 39.21875 -48.730469 L 53.308594 -55.035156 C 55.769531 -56.136719 57.707031 -57.917969 59.121094 -60.386719 C 60.636719 -63.027344 61.394531 -66.277344 61.394531 -70.128906 C 61.394531 -73.46875 60.570312 -76.492188 58.917969 -79.199219 C 57.25 -81.9375 54.871094 -84.140625 51.792969 -85.804688 C 48.660156 -87.5 44.871094 -88.347656 40.425781 -88.347656 L 8.25 -88.347656 L 8.25 -93.503906 L 13.40625 -93.503906 L 13.40625 0 L 8.25 0 L 8.25 -5.15625 L 46.0625 -5.15625 C 53.632812 -5.15625 59.390625 -7.109375 63.335938 -11.019531 C 67.269531 -14.914062 69.234375 -20.179688 69.234375 -26.8125 Z M 69.234375 -26.8125 "/></g></g></g><g fill="#ffffff" fill-opacity="1"><g transform="translate(3.026929, 130.941998)"><g><path d="M 44.546875 -14.578125 C 46.742188 -14.578125 49.125 -14.921875 51.6875 -15.609375 C 54.257812 -16.296875 56.484375 -17.441406 58.359375 -19.046875 C 60.242188 -20.648438 61.1875 -22.828125 61.1875 -25.578125 C 61.1875 -28.140625 60.203125 -30.195312 58.234375 -31.75 C 56.265625 -33.3125 53.675781 -34.597656 50.46875 -35.609375 C 47.257812 -36.617188 43.75 -37.554688 39.9375 -38.421875 C 36.132812 -39.296875 32.304688 -40.351562 28.453125 -41.59375 C 24.609375 -42.832031 21.082031 -44.457031 17.875 -46.46875 C 14.664062 -48.488281 12.078125 -51.101562 10.109375 -54.3125 C 8.140625 -57.519531 7.15625 -61.597656 7.15625 -66.546875 C 7.15625 -71.410156 8.160156 -75.601562 10.171875 -79.125 C 12.191406 -82.65625 14.875 -85.585938 18.21875 -87.921875 C 21.5625 -90.265625 25.316406 -92.007812 29.484375 -93.15625 C 33.660156 -94.300781 37.859375 -94.875 42.078125 -94.875 C 48.492188 -94.875 54.492188 -93.863281 60.078125 -91.84375 C 65.671875 -89.832031 70.234375 -86.648438 73.765625 -82.296875 C 77.296875 -77.941406 79.15625 -72.1875 79.34375 -65.03125 L 59.40625 -65.03125 C 58.851562 -69.894531 57.15625 -73.265625 54.3125 -75.140625 C 51.46875 -77.023438 47.476562 -77.96875 42.34375 -77.96875 C 40.425781 -77.96875 38.390625 -77.644531 36.234375 -77 C 34.078125 -76.351562 32.242188 -75.320312 30.734375 -73.90625 C 29.222656 -72.488281 28.46875 -70.585938 28.46875 -68.203125 C 28.46875 -65.816406 29.453125 -63.9375 31.421875 -62.5625 C 33.390625 -61.1875 35.976562 -60.039062 39.1875 -59.125 C 42.394531 -58.207031 45.921875 -57.335938 49.765625 -56.515625 C 53.617188 -55.691406 57.445312 -54.679688 61.25 -53.484375 C 65.0625 -52.296875 68.570312 -50.671875 71.78125 -48.609375 C 74.988281 -46.546875 77.578125 -43.863281 79.546875 -40.5625 C 81.515625 -37.257812 82.5 -33.039062 82.5 -27.90625 C 82.5 -22.40625 81.398438 -17.726562 79.203125 -13.875 C 77.003906 -10.03125 74.046875 -6.9375 70.328125 -4.59375 C 66.617188 -2.257812 62.445312 -0.546875 57.8125 0.546875 C 53.1875 1.648438 48.488281 2.203125 43.71875 2.203125 C 36.84375 2.203125 30.40625 1.035156 24.40625 -1.296875 C 18.40625 -3.640625 13.546875 -7.238281 9.828125 -12.09375 C 6.117188 -16.957031 4.21875 -23.191406 4.125 -30.796875 L 25.03125 -30.796875 C 25.300781 -25.203125 27.359375 -21.097656 31.203125 -18.484375 C 35.054688 -15.878906 39.503906 -14.578125 44.546875 -14.578125 Z M 44.546875 -14.578125 "/></g></g></g><g fill="#ffffff" fill-opacity="1"><g transform="translate(89.653515, 130.941998)"><g><path d="M 28.875 -33.40625 L 28.875 0 L 8.25 0 L 8.25 -93.5 L 43.3125 -93.5 C 48.351562 -93.5 53.050781 -92.238281 57.40625 -89.71875 C 61.757812 -87.195312 65.265625 -83.691406 67.921875 -79.203125 C 70.578125 -74.710938 71.90625 -69.488281 71.90625 -63.53125 C 71.90625 -57.195312 70.578125 -51.785156 67.921875 -47.296875 C 65.265625 -42.804688 61.757812 -39.367188 57.40625 -36.984375 C 53.050781 -34.597656 48.351562 -33.40625 43.3125 -33.40625 Z M 39.875 -77.28125 L 28.875 -77.28125 L 28.875 -49.640625 L 39.875 -49.640625 C 42.894531 -49.640625 45.710938 -50.828125 48.328125 -53.203125 C 50.941406 -55.585938 52.25 -59.03125 52.25 -63.53125 C 52.25 -67.832031 50.941406 -71.195312 48.328125 -73.625 C 45.710938 -76.0625 42.894531 -77.28125 39.875 -77.28125 Z M 39.875 -77.28125 "/></g></g></g><g fill="#ffffff" fill-opacity="1"><g transform="translate(163.629877, 130.941998)"><g><path d="M 80.4375 -46.890625 C 80.4375 -51.742188 79.148438 -56.253906 76.578125 -60.421875 C 74.015625 -64.597656 70.644531 -67.96875 66.46875 -70.53125 C 62.300781 -73.101562 57.789062 -74.390625 52.9375 -74.390625 C 48.164062 -74.390625 43.671875 -73.101562 39.453125 -70.53125 C 35.242188 -67.96875 31.851562 -64.597656 29.28125 -60.421875 C 26.71875 -56.253906 25.4375 -51.742188 25.4375 -46.890625 C 25.4375 -42.117188 26.71875 -37.625 29.28125 -33.40625 C 31.851562 -29.195312 35.242188 -25.785156 39.453125 -23.171875 C 43.671875 -20.554688 48.164062 -19.25 52.9375 -19.25 C 57.789062 -19.25 62.300781 -20.554688 66.46875 -23.171875 C 70.644531 -25.785156 74.015625 -29.195312 76.578125 -33.40625 C 79.148438 -37.625 80.4375 -42.117188 80.4375 -46.890625 Z M 101.0625 -46.75 C 101.0625 -40.332031 99.773438 -34.210938 97.203125 -28.390625 C 94.640625 -22.566406 91.132812 -17.429688 86.6875 -12.984375 C 82.25 -8.546875 77.140625 -5.039062 71.359375 -2.46875 C 65.585938 0.09375 59.445312 1.375 52.9375 1.375 C 46.519531 1.375 40.398438 0.09375 34.578125 -2.46875 C 28.753906 -5.039062 23.617188 -8.546875 19.171875 -12.984375 C 14.734375 -17.429688 11.226562 -22.566406 8.65625 -28.390625 C 6.09375 -34.210938 4.8125 -40.332031 4.8125 -46.75 C 4.8125 -53.257812 6.09375 -59.398438 8.65625 -65.171875 C 11.226562 -70.953125 14.734375 -76.0625 19.171875 -80.5 C 23.617188 -84.945312 28.753906 -88.453125 34.578125 -91.015625 C 40.398438 -93.585938 46.519531 -94.875 52.9375 -94.875 C 59.445312 -94.875 65.585938 -93.585938 71.359375 -91.015625 C 77.140625 -88.453125 82.25 -84.945312 86.6875 -80.5 C 91.132812 -76.0625 94.640625 -70.953125 97.203125 -65.171875 C 99.773438 -59.398438 101.0625 -53.257812 101.0625 -46.75 Z M 101.0625 -46.75 "/></g></g></g><g fill="#ffffff" fill-opacity="1"><g transform="translate(269.506817, 130.941998)"><g><path d="M 28.875 -33.40625 L 28.875 0 L 8.25 0 L 8.25 -93.5 L 43.3125 -93.5 C 48.351562 -93.5 53.050781 -92.238281 57.40625 -89.71875 C 61.757812 -87.195312 65.265625 -83.691406 67.921875 -79.203125 C 70.578125 -74.710938 71.90625 -69.488281 71.90625 -63.53125 C 71.90625 -58.300781 70.941406 -53.671875 69.015625 -49.640625 C 67.097656 -45.609375 64.535156 -42.304688 61.328125 -39.734375 C 58.117188 -37.171875 54.539062 -35.382812 50.59375 -34.375 L 77.40625 0 L 51.28125 0 L 29.015625 -33.40625 Z M 39.875 -77.28125 L 28.875 -77.28125 L 28.875 -49.640625 L 39.875 -49.640625 C 42.894531 -49.640625 45.710938 -50.828125 48.328125 -53.203125 C 50.941406 -55.585938 52.25 -59.03125 52.25 -63.53125 C 52.25 -67.832031 50.941406 -71.195312 48.328125 -73.625 C 45.710938 -76.0625 42.894531 -77.28125 39.875 -77.28125 Z M 39.875 -77.28125 "/></g></g></g><g fill="#ffffff" fill-opacity="1"><g transform="translate(345.270714, 130.941998)"><g><path d="M 47.984375 -74.796875 L 47.984375 0 L 27.359375 0 L 27.359375 -74.796875 L 0.6875 -74.796875 L 0.6875 -93.5 L 74.65625 -93.5 L 74.65625 -74.796875 Z M 47.984375 -74.796875 "/></g></g></g><g fill="#ffffff" fill-opacity="1"><g transform="translate(420.622077, 130.941998)"><g><path d="M 44.546875 -14.578125 C 46.742188 -14.578125 49.125 -14.921875 51.6875 -15.609375 C 54.257812 -16.296875 56.484375 -17.441406 58.359375 -19.046875 C 60.242188 -20.648438 61.1875 -22.828125 61.1875 -25.578125 C 61.1875 -28.140625 60.203125 -30.195312 58.234375 -31.75 C 56.265625 -33.3125 53.675781 -34.597656 50.46875 -35.609375 C 47.257812 -36.617188 43.75 -37.554688 39.9375 -38.421875 C 36.132812 -39.296875 32.304688 -40.351562 28.453125 -41.59375 C 24.609375 -42.832031 21.082031 -44.457031 17.875 -46.46875 C 14.664062 -48.488281 12.078125 -51.101562 10.109375 -54.3125 C 8.140625 -57.519531 7.15625 -61.597656 7.15625 -66.546875 C 7.15625 -71.410156 8.160156 -75.601562 10.171875 -79.125 C 12.191406 -82.65625 14.875 -85.585938 18.21875 -87.921875 C 21.5625 -90.265625 25.316406 -92.007812 29.484375 -93.15625 C 33.660156 -94.300781 37.859375 -94.875 42.078125 -94.875 C 48.492188 -94.875 54.492188 -93.863281 60.078125 -91.84375 C 65.671875 -89.832031 70.234375 -86.648438 73.765625 -82.296875 C 77.296875 -77.941406 79.15625 -72.1875 79.34375 -65.03125 L 59.40625 -65.03125 C 58.851562 -69.894531 57.15625 -73.265625 54.3125 -75.140625 C 51.46875 -77.023438 47.476562 -77.96875 42.34375 -77.96875 C 40.425781 -77.96875 38.390625 -77.644531 36.234375 -77 C 34.078125 -76.351562 32.242188 -75.320312 30.734375 -73.90625 C 29.222656 -72.488281 28.46875 -70.585938 28.46875 -68.203125 C 28.46875 -65.816406 29.453125 -63.9375 31.421875 -62.5625 C 33.390625 -61.1875 35.976562 -60.039062 39.1875 -59.125 C 42.394531 -58.207031 45.921875 -57.335938 49.765625 -56.515625 C 53.617188 -55.691406 57.445312 -54.679688 61.25 -53.484375 C 65.0625 -52.296875 68.570312 -50.671875 71.78125 -48.609375 C 74.988281 -46.546875 77.578125 -43.863281 79.546875 -40.5625 C 81.515625 -37.257812 82.5 -33.039062 82.5 -27.90625 C 82.5 -22.40625 81.398438 -17.726562 79.203125 -13.875 C 77.003906 -10.03125 74.046875 -6.9375 70.328125 -4.59375 C 66.617188 -2.257812 62.445312 -0.546875 57.8125 0.546875 C 53.1875 1.648438 48.488281 2.203125 43.71875 2.203125 C 36.84375 2.203125 30.40625 1.035156 24.40625 -1.296875 C 18.40625 -3.640625 13.546875 -7.238281 9.828125 -12.09375 C 6.117188 -16.957031 4.21875 -23.191406 4.125 -30.796875 L 25.03125 -30.796875 C 25.300781 -25.203125 27.359375 -21.097656 31.203125 -18.484375 C 35.054688 -15.878906 39.503906 -14.578125 44.546875 -14.578125 Z M 44.546875 -14.578125 "/></g></g></g><g fill="#ffffff" fill-opacity="1"><g transform="translate(507.248663, 130.941998)"><g/></g></g><g fill="#ffffff" fill-opacity="1"><g transform="translate(541.624292, 130.941998)"><g><path d="M 59.671875 -93.5 L 81.671875 -93.5 L 81.671875 0 L 59.671875 0 L 59.671875 -37.53125 L 28.875 -37.53125 L 28.875 0 L 8.25 0 L 8.25 -93.5 L 28.875 -93.5 L 28.875 -56.234375 L 59.671875 -56.234375 Z M 59.671875 -93.5 "/></g></g></g><g fill="#ffffff" fill-opacity="1"><g transform="translate(631.550968, 130.941998)"><g><path d="M 62.84375 -93.5 L 83.46875 -93.5 L 83.46875 -36.4375 C 83.46875 -23.96875 80.070312 -14.546875 73.28125 -8.171875 C 66.5 -1.804688 57.015625 1.375 44.828125 1.375 C 32.628906 1.375 23.140625 -1.804688 16.359375 -8.171875 C 9.578125 -14.546875 6.1875 -23.96875 6.1875 -36.4375 L 6.1875 -93.5 L 26.8125 -93.5 L 26.8125 -39.46875 C 26.8125 -33.050781 28.070312 -28.078125 30.59375 -24.546875 C 33.113281 -21.015625 37.859375 -19.25 44.828125 -19.25 C 51.878906 -19.25 56.644531 -21.015625 59.125 -24.546875 C 61.601562 -28.078125 62.84375 -33.050781 62.84375 -39.46875 Z M 62.84375 -93.5 "/></g></g></g><g fill="#ffffff" fill-opacity="1"><g transform="translate(721.202588, 130.941998)"><g><path d="M 53.34375 -27.359375 C 53.34375 -30.390625 52.21875 -33.023438 49.96875 -35.265625 C 47.726562 -37.515625 45.050781 -38.640625 41.9375 -38.640625 L 28.875 -38.640625 L 28.875 -16.09375 L 41.9375 -16.09375 C 45.050781 -16.09375 47.726562 -17.191406 49.96875 -19.390625 C 52.21875 -21.585938 53.34375 -24.242188 53.34375 -27.359375 Z M 46.890625 -66.40625 C 46.890625 -69.4375 45.8125 -72.003906 43.65625 -74.109375 C 41.5 -76.222656 38.957031 -77.28125 36.03125 -77.28125 L 28.875 -77.28125 L 28.875 -55.546875 L 36.03125 -55.546875 C 38.957031 -55.546875 41.5 -56.625 43.65625 -58.78125 C 45.8125 -60.9375 46.890625 -63.476562 46.890625 -66.40625 Z M 74.390625 -26.8125 C 74.390625 -18.75 71.910156 -12.265625 66.953125 -7.359375 C 62.003906 -2.453125 55.039062 0 46.0625 0 L 8.25 0 L 8.25 -93.5 L 40.421875 -93.5 C 45.742188 -93.5 50.351562 -92.441406 54.25 -90.328125 C 58.144531 -88.222656 61.164062 -85.40625 63.3125 -81.875 C 65.46875 -78.351562 66.546875 -74.4375 66.546875 -70.125 C 66.546875 -65.351562 65.5625 -61.25 63.59375 -57.8125 C 61.625 -54.375 58.894531 -51.878906 55.40625 -50.328125 C 60.632812 -49.128906 65.101562 -46.488281 68.8125 -42.40625 C 72.53125 -38.332031 74.390625 -33.132812 74.390625 -26.8125 Z M 74.390625 -26.8125 "/></g></g></g></g></g></g><g clip-path="url(#62bb1250e6)"><path fill="#03dba4" d="M 259.78125 85.042969 C 259.78125 85.097656 259.78125 85.148438 259.777344 85.207031 C 259.765625 90.273438 258.878906 95.140625 257.261719 99.65625 C 257.042969 100.265625 256.816406 100.859375 256.566406 101.457031 C 254.21875 107.207031 250.667969 112.335938 246.234375 116.542969 C 241.796875 120.75 236.472656 124.019531 230.570312 126.0625 C 229.058594 126.585938 227.503906 127.027344 225.921875 127.382812 C 225.886719 127.390625 225.851562 127.394531 225.820312 127.40625 C 224.058594 127.796875 222.261719 128.078125 220.425781 128.246094 C 219.105469 128.371094 217.757812 128.433594 216.398438 128.433594 C 211.957031 128.433594 207.667969 127.769531 203.628906 126.523438 C 202.605469 126.207031 201.601562 125.859375 200.613281 125.46875 C 191.695312 121.984375 184.210938 115.636719 179.292969 107.550781 C 178.476562 106.207031 177.730469 104.820312 177.0625 103.382812 C 174.585938 98.089844 173.152344 92.214844 173.015625 86.019531 C 173.011719 85.691406 173.003906 85.371094 173.003906 85.046875 C 173.003906 84.71875 173.007812 84.398438 173.015625 84.082031 C 173.28125 71.691406 178.75 60.582031 187.316406 52.84375 C 188 52.226562 188.703125 51.628906 189.421875 51.058594 C 189.855469 50.714844 190.289062 50.382812 190.738281 50.054688 C 192.226562 48.960938 193.785156 47.960938 195.410156 47.0625 C 201.628906 43.613281 208.785156 41.652344 216.398438 41.652344 C 219.664062 41.652344 222.851562 42.019531 225.910156 42.703125 C 227.5 43.058594 229.050781 43.5 230.570312 44.027344 C 240.761719 47.546875 249.230469 54.753906 254.382812 64.058594 C 255.398438 65.890625 256.28125 67.800781 257.019531 69.785156 C 257.074219 69.921875 257.125 70.058594 257.175781 70.199219 L 257.175781 70.203125 C 257.519531 71.140625 257.832031 72.09375 258.113281 73.058594 C 259.027344 76.261719 259.585938 79.617188 259.738281 83.074219 C 259.769531 83.722656 259.78125 84.382812 259.78125 85.042969 Z M 259.78125 85.042969 " fill-opacity="1" fill-rule="nonzero"/></g><path fill="#03dba4" d="M 197.652344 119.90625 C 198.550781 119.90625 198.550781 118.511719 197.652344 118.511719 C 196.757812 118.511719 196.753906 119.90625 197.652344 119.90625 Z M 197.652344 119.90625 " fill-opacity="1" fill-rule="nonzero"/><path fill="#03dba4" d="M 192.863281 116.96875 C 193.757812 116.96875 193.757812 115.574219 192.863281 115.574219 C 191.964844 115.574219 191.964844 116.96875 192.863281 116.96875 Z M 192.863281 116.96875 " fill-opacity="1" fill-rule="nonzero"/><path fill="#03dba4" d="M 197.1875 114.339844 C 198.085938 114.339844 198.085938 112.945312 197.1875 112.945312 C 196.289062 112.949219 196.289062 114.339844 197.1875 114.339844 Z M 197.1875 114.339844 " fill-opacity="1" fill-rule="nonzero"/><path fill="#03dba4" d="M 189.617188 110.476562 C 189.566406 110.476562 189.515625 110.476562 189.464844 110.476562 C 189.101562 110.476562 188.75 110.796875 188.765625 111.171875 C 188.785156 111.550781 189.074219 111.871094 189.464844 111.871094 C 189.515625 111.871094 189.566406 111.871094 189.617188 111.871094 C 189.980469 111.871094 190.332031 111.550781 190.3125 111.171875 C 190.296875 110.796875 190.007812 110.476562 189.617188 110.476562 Z M 189.617188 110.476562 " fill-opacity="1" fill-rule="nonzero"/><path fill="#03dba4" d="M 193.789062 109.859375 C 194.6875 109.859375 194.6875 108.464844 193.789062 108.464844 C 192.890625 108.464844 192.890625 109.859375 193.789062 109.859375 Z M 193.789062 109.859375 " fill-opacity="1" fill-rule="nonzero"/><path fill="#03dba4" d="M 184.828125 106.769531 C 185.726562 106.769531 185.726562 105.375 184.828125 105.375 C 183.929688 105.378906 183.929688 106.769531 184.828125 106.769531 Z M 184.828125 106.769531 " fill-opacity="1" fill-rule="nonzero"/><path fill="#03dba4" d="M 180.191406 102.90625 C 181.089844 102.90625 181.089844 101.511719 180.191406 101.511719 C 179.292969 101.511719 179.292969 102.90625 180.191406 102.90625 Z M 180.191406 102.90625 " fill-opacity="1" fill-rule="nonzero"/><path fill="#03dba4" d="M 203.058594 119.132812 C 203.957031 119.132812 203.957031 117.738281 203.058594 117.738281 C 202.164062 117.738281 202.160156 119.132812 203.058594 119.132812 Z M 203.058594 119.132812 " fill-opacity="1" fill-rule="nonzero"/><path fill="#03dba4" d="M 201.050781 122.683594 C 201.949219 122.683594 201.949219 121.289062 201.050781 121.289062 C 200.15625 121.292969 200.15625 122.683594 201.050781 122.683594 Z M 201.050781 122.683594 " fill-opacity="1" fill-rule="nonzero"/><path fill="#03dba4" d="M 213.414062 125.464844 C 214.3125 125.464844 214.3125 124.070312 213.414062 124.070312 C 212.515625 124.070312 212.515625 125.464844 213.414062 125.464844 Z M 213.414062 125.464844 " fill-opacity="1" fill-rule="nonzero"/><path fill="#03dba4" d="M 219.902344 124.695312 C 220.800781 124.695312 220.800781 123.300781 219.902344 123.300781 C 219.003906 123.300781 219.003906 124.695312 219.902344 124.695312 Z M 219.902344 124.695312 " fill-opacity="1" fill-rule="nonzero"/><path fill="#03dba4" d="M 225.15625 125.621094 C 226.054688 125.621094 226.054688 124.226562 225.15625 124.226562 C 224.261719 124.226562 224.257812 125.621094 225.15625 125.621094 Z M 225.15625 125.621094 " fill-opacity="1" fill-rule="nonzero"/><path fill="#03dba4" d="M 184.59375 109.933594 C 184.59375 109.984375 184.59375 110.039062 184.59375 110.089844 C 184.59375 110.453125 184.914062 110.800781 185.289062 110.785156 C 185.667969 110.769531 185.988281 110.480469 185.988281 110.089844 C 185.988281 110.039062 185.988281 109.984375 185.988281 109.933594 C 185.988281 109.570312 185.667969 109.222656 185.289062 109.238281 C 184.914062 109.253906 184.59375 109.542969 184.59375 109.933594 Z M 184.59375 109.933594 " fill-opacity="1" fill-rule="nonzero"/><path fill="#03dba4" d="M 188.457031 105.457031 C 188.457031 105.507812 188.457031 105.558594 188.457031 105.609375 C 188.457031 105.972656 188.777344 106.324219 189.152344 106.304688 C 189.53125 106.289062 189.851562 106 189.851562 105.609375 C 189.851562 105.558594 189.851562 105.507812 189.851562 105.457031 C 189.851562 105.089844 189.53125 104.742188 189.152344 104.757812 C 188.777344 104.773438 188.457031 105.0625 188.457031 105.457031 Z M 188.457031 105.457031 " fill-opacity="1" fill-rule="nonzero"/><path fill="#03dba4" d="M 177.71875 97.808594 C 178.617188 97.808594 178.617188 96.414062 177.71875 96.414062 C 176.820312 96.414062 176.820312 97.808594 177.71875 97.808594 Z M 177.71875 97.808594 " fill-opacity="1" fill-rule="nonzero"/><path fill="#03dba4" d="M 207.929688 120.910156 C 207.929688 120.855469 207.929688 120.804688 207.929688 120.753906 C 207.929688 120.390625 207.609375 120.039062 207.234375 120.058594 C 206.855469 120.074219 206.535156 120.363281 206.535156 120.753906 C 206.535156 120.804688 206.535156 120.855469 206.535156 120.910156 C 206.535156 121.273438 206.855469 121.621094 207.234375 121.605469 C 207.609375 121.589844 207.929688 121.296875 207.929688 120.910156 Z M 207.929688 120.910156 " fill-opacity="1" fill-rule="nonzero"/><path fill="#ffffff" d="M 257.015625 69.78125 C 256.585938 69.59375 256.144531 69.421875 255.699219 69.269531 C 249.808594 67.207031 243.15625 67.648438 237.453125 70.472656 C 235.417969 71.480469 233.535156 72.835938 231.546875 74.265625 C 227.953125 76.84375 224.238281 79.519531 219.363281 80.265625 C 211.847656 81.421875 205.148438 79.230469 199.996094 73.9375 C 194.476562 68.277344 191.085938 59.191406 190.730469 50.050781 C 192.21875 48.957031 193.78125 47.957031 195.402344 47.058594 C 195.128906 55.089844 197.523438 64.738281 203.320312 70.691406 C 207.445312 74.925781 212.601562 76.597656 218.65625 75.667969 C 222.425781 75.09375 225.535156 72.859375 228.832031 70.492188 C 230.886719 69.015625 233.011719 67.484375 235.390625 66.3125 C 241.300781 63.382812 248.070312 62.601562 254.378906 64.054688 C 255.394531 65.890625 256.277344 67.796875 257.015625 69.78125 Z M 257.015625 69.78125 " fill-opacity="1" fill-rule="nonzero"/><g clip-path="url(#545fcc8110)"><path fill="#ffffff" d="M 225.816406 127.402344 C 224.054688 127.792969 222.257812 128.074219 220.425781 128.242188 C 220.03125 127.710938 219.675781 127.167969 219.355469 126.628906 C 218.238281 124.753906 217.46875 122.777344 216.726562 120.867188 C 215.976562 118.933594 215.265625 117.113281 214.253906 115.511719 C 212.421875 112.617188 209.972656 110.144531 207.160156 108.351562 C 198.710938 102.972656 188.570312 104.675781 179.289062 107.542969 C 178.472656 106.199219 177.726562 104.8125 177.058594 103.378906 C 187.300781 100.132812 199.359375 97.871094 209.65625 104.429688 C 213.042969 106.589844 215.988281 109.566406 218.175781 113.035156 C 219.425781 115.011719 220.246094 117.132812 221.046875 119.179688 C 221.757812 120.992188 222.421875 122.707031 223.34375 124.246094 C 224.003906 125.347656 224.84375 126.460938 225.816406 127.402344 Z M 225.816406 127.402344 " fill-opacity="1" fill-rule="nonzero"/></g></g></g></svg>