<svg xmlns="http://www.w3.org/2000/svg" xmlns:xlink="http://www.w3.org/1999/xlink" width="500" zoomAndPan="magnify" viewBox="0 0 375 374.999991" height="500" preserveAspectRatio="xMidYMid meet" version="1.0"><defs><g/><clipPath id="832abc9bd0"><path d="M 0 91.488281 L 375 91.488281 L 375 283.511719 L 0 283.511719 Z M 0 91.488281 " clip-rule="nonzero"/></clipPath><clipPath id="e5d3621e21"><path d="M 15 91.488281 L 360 91.488281 C 363.976562 91.488281 367.792969 93.066406 370.605469 95.878906 C 373.417969 98.695312 375 102.507812 375 106.488281 L 375 268.511719 C 375 272.492188 373.417969 276.304688 370.605469 279.121094 C 367.792969 281.933594 363.976562 283.511719 360 283.511719 L 15 283.511719 C 11.023438 283.511719 7.207031 281.933594 4.394531 279.121094 C 1.582031 276.304688 0 272.492188 0 268.511719 L 0 106.488281 C 0 102.507812 1.582031 98.695312 4.394531 95.878906 C 7.207031 93.066406 11.023438 91.488281 15 91.488281 Z M 15 91.488281 " clip-rule="nonzero"/></clipPath><clipPath id="60fb00cb2f"><path d="M 0 0.488281 L 375 0.488281 L 375 192.511719 L 0 192.511719 Z M 0 0.488281 " clip-rule="nonzero"/></clipPath><clipPath id="193a235928"><path d="M 15 0.488281 L 360 0.488281 C 363.976562 0.488281 367.792969 2.066406 370.605469 4.878906 C 373.417969 7.695312 375 11.507812 375 15.488281 L 375 177.511719 C 375 181.492188 373.417969 185.304688 370.605469 188.121094 C 367.792969 190.933594 363.976562 192.511719 360 192.511719 L 15 192.511719 C 11.023438 192.511719 7.207031 190.933594 4.394531 188.121094 C 1.582031 185.304688 0 181.492188 0 177.511719 L 0 15.488281 C 0 11.507812 1.582031 7.695312 4.394531 4.878906 C 7.207031 2.066406 11.023438 0.488281 15 0.488281 Z M 15 0.488281 " clip-rule="nonzero"/></clipPath><clipPath id="f254bf9778"><rect x="0" width="375" y="0" height="193"/></clipPath><clipPath id="3fc4221eaa"><path d="M 0.00390625 91.488281 L 375 91.488281 L 375 283.488281 L 0.00390625 283.488281 Z M 0.00390625 91.488281 " clip-rule="nonzero"/></clipPath><clipPath id="5cbb92d025"><path d="M 15.003906 91.488281 L 359.996094 91.488281 C 363.976562 91.488281 367.789062 93.066406 370.605469 95.878906 C 373.417969 98.691406 374.996094 102.507812 374.996094 106.488281 L 374.996094 268.511719 C 374.996094 272.488281 373.417969 276.304688 370.605469 279.117188 C 367.789062 281.929688 363.976562 283.511719 359.996094 283.511719 L 15.003906 283.511719 C 11.023438 283.511719 7.210938 281.929688 4.394531 279.117188 C 1.582031 276.304688 0.00390625 272.488281 0.00390625 268.511719 L 0.00390625 106.488281 C 0.00390625 102.507812 1.582031 98.691406 4.394531 95.878906 C 7.210938 93.066406 11.023438 91.488281 15.003906 91.488281 Z M 15.003906 91.488281 " clip-rule="nonzero"/></clipPath><clipPath id="f89e5a7204"><rect x="0" width="357" y="0" height="116"/></clipPath><clipPath id="9161a72b26"><rect x="0" width="182" y="0" height="116"/></clipPath><clipPath id="d0d7fc4b62"><rect x="0" width="77" y="0" height="116"/></clipPath><clipPath id="7ffd6979e2"><path d="M 126.746094 110.933594 L 194.246094 110.933594 L 194.246094 178.433594 L 126.746094 178.433594 Z M 126.746094 110.933594 " clip-rule="nonzero"/></clipPath><clipPath id="4e6f85b06c"><path d="M 129 156 L 168 156 L 168 178.433594 L 129 178.433594 Z M 129 156 " clip-rule="nonzero"/></clipPath></defs><g clip-path="url(#832abc9bd0)"><g clip-path="url(#e5d3621e21)"><g transform="matrix(1, 0, 0, 1, 0, 91)"><g clip-path="url(#f254bf9778)"><g clip-path="url(#60fb00cb2f)"><g clip-path="url(#193a235928)"><path fill="#006045" d="M 0 0.488281 L 375.050781 0.488281 L 375.050781 192.511719 L 0 192.511719 Z M 0 0.488281 " fill-opacity="1" fill-rule="nonzero"/></g></g></g></g></g></g><g clip-path="url(#3fc4221eaa)"><g clip-path="url(#5cbb92d025)"><path stroke-linecap="butt" transform="matrix(0.75, 0, 0, 0.75, 0.00264758, 91.486928)" fill="none" stroke-linejoin="miter" d="M 20.001681 0.00180381 L 479.991324 0.00180381 C 485.298616 0.00180381 490.38195 2.105971 494.137159 5.855971 C 497.887159 9.605972 499.991326 14.694514 499.991326 20.001806 L 499.991326 236.033084 C 499.991326 241.335168 497.887159 246.423711 494.137159 250.173711 C 490.38195 253.923712 485.298616 256.033087 479.991324 256.033087 L 20.001681 256.033087 C 14.694388 256.033087 9.611054 253.923712 5.855846 250.173711 C 2.105845 246.423711 0.00167822 241.335168 0.00167822 236.033084 L 0.00167822 20.001806 C 0.00167822 14.694514 2.105845 9.605972 5.855846 5.855971 C 9.611054 2.105971 14.694388 0.00180381 20.001681 0.00180381 Z M 20.001681 0.00180381 " stroke="#ffffff" stroke-width="8" stroke-opacity="1" stroke-miterlimit="4"/></g></g><g transform="matrix(1, 0, 0, 1, 10, 85)"><g clip-path="url(#f89e5a7204)"><g fill="#03dba4" fill-opacity="1"><g transform="translate(2.335212, 91.046969)"><g><path d="M 30.953125 -13.710938 C 32.167969 -13.710938 33.515625 -13.90625 34.996094 -14.304688 C 36.257812 -14.640625 37.335938 -15.191406 38.230469 -15.957031 C 38.695312 -16.355469 38.929688 -16.960938 38.929688 -17.769531 C 38.929688 -18.398438 38.699219 -18.894531 38.238281 -19.257812 C 37.214844 -20.066406 35.796875 -20.757812 33.988281 -21.324219 C 31.847656 -21.996094 29.503906 -22.625 26.953125 -23.210938 C 24.210938 -23.835938 21.453125 -24.597656 18.679688 -25.488281 C 15.71875 -26.441406 12.996094 -27.695312 10.511719 -29.257812 C 7.8125 -30.957031 5.628906 -33.15625 3.96875 -35.863281 C 2.246094 -38.664062 1.386719 -42.125 1.386719 -46.238281 C 1.386719 -50.25 2.242188 -53.757812 3.957031 -56.757812 C 5.625 -59.675781 7.84375 -62.101562 10.605469 -64.03125 C 13.269531 -65.894531 16.246094 -67.277344 19.542969 -68.179688 C 22.75 -69.0625 25.980469 -69.503906 29.234375 -69.503906 C 34.109375 -69.503906 38.6875 -68.730469 42.964844 -67.1875 C 47.476562 -65.5625 51.167969 -62.976562 54.039062 -59.433594 C 57.003906 -55.777344 58.558594 -51.058594 58.707031 -45.28125 L 58.800781 -41.605469 L 38.070312 -41.605469 L 37.710938 -44.785156 C 37.453125 -47.054688 36.804688 -48.53125 35.761719 -49.222656 C 34.386719 -50.132812 32.273438 -50.585938 29.425781 -50.585938 C 28.4375 -50.585938 27.359375 -50.414062 26.195312 -50.066406 C 25.242188 -49.78125 24.445312 -49.339844 23.804688 -48.738281 C 23.507812 -48.460938 23.359375 -48.007812 23.359375 -47.386719 C 23.359375 -47.144531 23.394531 -46.960938 23.460938 -46.828125 C 23.535156 -46.691406 23.671875 -46.550781 23.878906 -46.40625 C 24.921875 -45.679688 26.367188 -45.054688 28.210938 -44.527344 C 30.363281 -43.910156 32.738281 -43.324219 35.335938 -42.769531 C 38.117188 -42.171875 40.882812 -41.445312 43.632812 -40.582031 C 46.582031 -39.660156 49.308594 -38.394531 51.808594 -36.785156 C 54.507812 -35.050781 56.6875 -32.792969 58.34375 -30.019531 C 60.050781 -27.160156 60.90625 -23.621094 60.90625 -19.394531 C 60.90625 -14.9375 59.984375 -11.097656 58.140625 -7.871094 C 56.316406 -4.679688 53.859375 -2.109375 50.777344 -0.167969 C 47.863281 1.667969 44.601562 3.011719 41 3.867188 C 37.511719 4.695312 33.972656 5.113281 30.378906 5.113281 C 25.15625 5.113281 20.246094 4.21875 15.65625 2.429688 C 10.863281 0.5625 6.96875 -2.324219 3.984375 -6.230469 C 0.921875 -10.238281 -0.644531 -15.277344 -0.714844 -21.355469 L -0.761719 -24.984375 L 20.800781 -24.984375 L 20.964844 -21.574219 C 21.097656 -18.882812 22.007812 -16.960938 23.699219 -15.816406 C 25.765625 -14.410156 28.183594 -13.710938 30.953125 -13.710938 Z M 30.953125 -6.542969 C 26.71875 -6.542969 22.957031 -7.65625 19.675781 -9.882812 C 16.015625 -12.367188 14.058594 -16.148438 13.808594 -21.222656 L 17.386719 -21.398438 L 17.386719 -17.816406 L 2.867188 -17.816406 L 2.867188 -21.398438 L 6.449219 -21.441406 C 6.503906 -16.949219 7.578125 -13.328125 9.679688 -10.582031 C 11.851562 -7.738281 14.710938 -5.628906 18.257812 -4.246094 C 22.011719 -2.785156 26.050781 -2.054688 30.378906 -2.054688 C 33.414062 -2.054688 36.402344 -2.402344 39.34375 -3.105469 C 42.175781 -3.777344 44.714844 -4.820312 46.957031 -6.234375 C 49.03125 -7.539062 50.6875 -9.269531 51.917969 -11.425781 C 53.132812 -13.550781 53.738281 -16.207031 53.738281 -19.394531 C 53.738281 -22.300781 53.222656 -24.617188 52.191406 -26.347656 C 51.109375 -28.15625 49.691406 -29.628906 47.933594 -30.757812 C 45.972656 -32.015625 43.828125 -33.011719 41.492188 -33.746094 C 38.953125 -34.539062 36.398438 -35.210938 33.832031 -35.761719 C 31.078125 -36.351562 28.550781 -36.976562 26.242188 -37.636719 C 23.632812 -38.382812 21.476562 -39.347656 19.78125 -40.53125 C 18.617188 -41.339844 17.730469 -42.332031 17.117188 -43.5 C 16.5 -44.675781 16.191406 -45.96875 16.191406 -47.386719 C 16.191406 -50.074219 17.09375 -52.265625 18.898438 -53.960938 C 20.363281 -55.335938 22.113281 -56.328125 24.152344 -56.933594 C 25.980469 -57.480469 27.738281 -57.753906 29.425781 -57.753906 C 33.710938 -57.753906 37.140625 -56.902344 39.714844 -55.199219 C 42.617188 -53.277344 44.324219 -50.074219 44.832031 -45.589844 L 41.273438 -45.1875 L 41.273438 -48.773438 L 55.125 -48.773438 L 55.125 -45.1875 L 51.542969 -45.097656 C 51.4375 -49.253906 50.414062 -52.527344 48.472656 -54.921875 C 46.4375 -57.429688 43.792969 -59.273438 40.535156 -60.449219 C 37.042969 -61.707031 33.273438 -62.335938 29.234375 -62.335938 C 26.625 -62.335938 24.027344 -61.980469 21.441406 -61.269531 C 18.941406 -60.582031 16.699219 -59.546875 14.710938 -58.160156 C 12.824219 -56.839844 11.316406 -55.191406 10.179688 -53.203125 C 9.09375 -51.300781 8.550781 -48.980469 8.550781 -46.238281 C 8.550781 -43.476562 9.058594 -41.265625 10.074219 -39.613281 C 11.152344 -37.859375 12.570312 -36.429688 14.328125 -35.324219 C 16.300781 -34.082031 18.484375 -33.078125 20.871094 -32.3125 C 23.449219 -31.484375 26.011719 -30.777344 28.554688 -30.195312 C 31.289062 -29.570312 33.816406 -28.890625 36.136719 -28.164062 C 38.785156 -27.328125 40.96875 -26.234375 42.683594 -24.878906 C 44.957031 -23.078125 46.097656 -20.710938 46.097656 -17.769531 C 46.097656 -14.757812 45.023438 -12.335938 42.882812 -10.507812 C 41.164062 -9.042969 39.152344 -8 36.847656 -7.382812 C 34.761719 -6.824219 32.796875 -6.542969 30.953125 -6.542969 Z M 30.953125 -6.542969 "/></g></g></g><g fill="#03dba4" fill-opacity="1"><g transform="translate(62.518384, 91.046969)"><g><path d="M 23.644531 -23.214844 L 23.644531 3.582031 L 2.148438 3.582031 L 2.148438 -68.546875 L 30.09375 -68.546875 C 34.238281 -68.546875 38.101562 -67.511719 41.683594 -65.4375 C 45.246094 -63.375 48.113281 -60.511719 50.277344 -56.855469 C 52.457031 -53.171875 53.546875 -48.933594 53.546875 -44.136719 C 53.546875 -39.089844 52.457031 -34.722656 50.277344 -31.039062 C 48.097656 -27.355469 45.207031 -24.527344 41.605469 -22.554688 C 38.046875 -20.605469 34.207031 -19.632812 30.09375 -19.632812 L 20.0625 -19.632812 L 20.0625 -23.214844 Z M 16.480469 -26.796875 L 30.09375 -26.796875 C 32.984375 -26.796875 35.675781 -27.480469 38.167969 -28.84375 C 40.617188 -30.183594 42.597656 -32.132812 44.113281 -34.691406 C 45.625 -37.246094 46.382812 -40.398438 46.382812 -44.136719 C 46.382812 -47.625 45.625 -50.644531 44.113281 -53.203125 C 42.582031 -55.789062 40.574219 -57.796875 38.089844 -59.238281 C 35.621094 -60.667969 32.957031 -61.382812 30.09375 -61.382812 L 5.730469 -61.382812 L 5.730469 -64.964844 L 9.316406 -64.964844 L 9.316406 0 L 5.730469 0 L 5.730469 -3.582031 L 20.0625 -3.582031 L 20.0625 0 L 16.480469 0 Z M 27.707031 -50.109375 L 20.0625 -50.109375 L 20.0625 -53.691406 L 23.644531 -53.691406 L 23.644531 -34.488281 L 20.0625 -34.488281 L 20.0625 -38.070312 L 27.707031 -38.070312 C 28.882812 -38.070312 30.035156 -38.585938 31.167969 -39.621094 C 32.203125 -40.566406 32.722656 -42.070312 32.722656 -44.136719 C 32.722656 -46.089844 32.195312 -47.554688 31.140625 -48.535156 C 30.011719 -49.585938 28.867188 -50.109375 27.707031 -50.109375 Z M 27.707031 -57.273438 C 30.746094 -57.273438 33.519531 -56.109375 36.019531 -53.785156 C 38.597656 -51.386719 39.886719 -48.171875 39.886719 -44.136719 C 39.886719 -39.960938 38.589844 -36.691406 35.996094 -34.324219 C 33.496094 -32.046875 30.734375 -30.90625 27.707031 -30.90625 L 16.480469 -30.90625 L 16.480469 -57.273438 Z M 27.707031 -57.273438 "/></g></g></g><g fill="#03dba4" fill-opacity="1"><g transform="translate(113.912917, 91.046969)"><g><path d="M 52.304688 -32.578125 C 52.304688 -35.277344 51.589844 -37.789062 50.164062 -40.109375 C 48.675781 -42.523438 46.726562 -44.472656 44.3125 -45.957031 C 41.992188 -47.386719 39.480469 -48.101562 36.78125 -48.101562 C 34.140625 -48.101562 31.640625 -47.382812 29.28125 -45.949219 C 26.84375 -44.464844 24.882812 -42.519531 23.402344 -40.109375 C 21.972656 -37.789062 21.257812 -35.277344 21.257812 -32.578125 C 21.257812 -29.9375 21.976562 -27.4375 23.410156 -25.078125 C 24.894531 -22.636719 26.863281 -20.65625 29.304688 -19.144531 C 31.65625 -17.6875 34.148438 -16.957031 36.78125 -16.957031 C 39.472656 -16.957031 41.972656 -17.683594 44.289062 -19.132812 C 46.710938 -20.648438 48.664062 -22.632812 50.152344 -25.078125 C 51.589844 -27.4375 52.304688 -29.9375 52.304688 -32.578125 Z M 59.472656 -32.578125 C 59.472656 -28.597656 58.40625 -24.855469 56.273438 -21.351562 C 54.199219 -17.941406 51.46875 -15.175781 48.09375 -13.0625 C 44.613281 -10.882812 40.84375 -9.792969 36.78125 -9.792969 C 32.789062 -9.792969 29.039062 -10.878906 25.53125 -13.050781 C 22.117188 -15.167969 19.367188 -17.933594 17.289062 -21.351562 C 15.15625 -24.855469 14.089844 -28.597656 14.089844 -32.578125 C 14.089844 -36.628906 15.160156 -40.390625 17.296875 -43.867188 C 19.382812 -47.253906 22.136719 -49.988281 25.554688 -52.070312 C 29.058594 -54.203125 32.800781 -55.269531 36.78125 -55.269531 C 40.832031 -55.269531 44.597656 -54.199219 48.070312 -52.0625 C 51.453125 -49.980469 54.183594 -47.25 56.265625 -43.867188 C 58.402344 -40.390625 59.472656 -36.628906 59.472656 -32.578125 Z M 73.800781 -32.480469 C 73.800781 -27.519531 72.808594 -22.789062 70.824219 -18.28125 C 68.859375 -13.828125 66.175781 -9.898438 62.769531 -6.496094 C 59.367188 -3.09375 55.457031 -0.410156 51.039062 1.554688 C 46.5625 3.542969 41.808594 4.539062 36.78125 4.539062 C 31.820312 4.539062 27.085938 3.546875 22.582031 1.558594 C 18.128906 -0.40625 14.199219 -3.089844 10.792969 -6.496094 C 7.386719 -9.898438 4.703125 -13.828125 2.742188 -18.28125 C 0.753906 -22.789062 -0.238281 -27.519531 -0.238281 -32.480469 C -0.238281 -37.511719 0.753906 -42.265625 2.746094 -46.738281 C 4.707031 -51.15625 7.390625 -55.066406 10.792969 -58.46875 C 14.199219 -61.875 18.128906 -64.558594 22.582031 -66.523438 C 27.085938 -68.511719 31.820312 -69.503906 36.78125 -69.503906 C 41.808594 -69.503906 46.5625 -68.507812 51.039062 -66.519531 C 55.457031 -64.554688 59.367188 -61.871094 62.769531 -58.46875 C 66.171875 -55.066406 68.855469 -51.15625 70.820312 -46.738281 C 72.808594 -42.265625 73.800781 -37.511719 73.800781 -32.480469 Z M 66.636719 -32.480469 C 66.636719 -36.496094 65.847656 -40.28125 64.269531 -43.828125 C 62.667969 -47.4375 60.476562 -50.628906 57.703125 -53.402344 C 54.925781 -56.179688 51.734375 -58.367188 48.128906 -59.972656 C 44.578125 -61.546875 40.796875 -62.335938 36.78125 -62.335938 C 32.828125 -62.335938 29.058594 -61.546875 25.472656 -59.964844 C 21.835938 -58.363281 18.632812 -56.175781 15.859375 -53.402344 C 13.085938 -50.628906 10.894531 -47.4375 9.292969 -43.828125 C 7.714844 -40.28125 6.925781 -36.496094 6.925781 -32.480469 C 6.925781 -28.527344 7.71875 -24.757812 9.296875 -21.175781 C 10.898438 -17.539062 13.089844 -14.335938 15.859375 -11.5625 C 18.632812 -8.789062 21.835938 -6.601562 25.472656 -5 C 29.058594 -3.417969 32.828125 -2.628906 36.78125 -2.628906 C 40.796875 -2.628906 44.578125 -3.417969 48.128906 -4.992188 C 51.734375 -6.597656 54.925781 -8.785156 57.703125 -11.5625 C 60.476562 -14.335938 62.664062 -17.539062 64.265625 -21.175781 C 65.847656 -24.757812 66.636719 -28.527344 66.636719 -32.480469 Z M 66.636719 -32.480469 "/></g></g></g><g fill="#03dba4" fill-opacity="1"><g transform="translate(187.470133, 91.046969)"><g><path d="M 23.644531 -23.214844 L 23.644531 3.582031 L 2.148438 3.582031 L 2.148438 -68.546875 L 30.09375 -68.546875 C 34.238281 -68.546875 38.101562 -67.511719 41.683594 -65.4375 C 45.246094 -63.375 48.113281 -60.511719 50.277344 -56.855469 C 52.457031 -53.171875 53.546875 -48.933594 53.546875 -44.136719 C 53.546875 -39.964844 52.761719 -36.234375 51.191406 -32.945312 C 49.621094 -29.648438 47.503906 -26.9375 44.847656 -24.8125 C 42.214844 -22.707031 39.28125 -21.242188 36.046875 -20.414062 L 35.15625 -23.882812 L 37.984375 -26.085938 L 61.125 3.582031 L 33.71875 3.582031 L 17.175781 -21.226562 L 20.15625 -23.214844 L 20.15625 -19.632812 L 20.0625 -19.632812 L 20.0625 -23.214844 Z M 16.480469 -26.796875 L 22.074219 -26.796875 L 38.617188 -1.988281 L 35.636719 0 L 35.636719 -3.582031 L 53.785156 -3.582031 L 53.785156 0 L 50.960938 2.203125 L 28.964844 -26 L 34.269531 -27.355469 C 36.507812 -27.929688 38.542969 -28.945312 40.371094 -30.40625 C 42.171875 -31.847656 43.625 -33.722656 44.726562 -36.03125 C 45.832031 -38.347656 46.382812 -41.046875 46.382812 -44.136719 C 46.382812 -47.625 45.625 -50.644531 44.113281 -53.203125 C 42.582031 -55.789062 40.574219 -57.796875 38.089844 -59.238281 C 35.621094 -60.667969 32.957031 -61.382812 30.09375 -61.382812 L 5.730469 -61.382812 L 5.730469 -64.964844 L 9.316406 -64.964844 L 9.316406 0 L 5.730469 0 L 5.730469 -3.582031 L 20.0625 -3.582031 L 20.0625 0 L 16.480469 0 Z M 27.707031 -50.109375 L 20.0625 -50.109375 L 20.0625 -53.691406 L 23.644531 -53.691406 L 23.644531 -34.488281 L 20.0625 -34.488281 L 20.0625 -38.070312 L 27.707031 -38.070312 C 28.882812 -38.070312 30.035156 -38.585938 31.167969 -39.621094 C 32.203125 -40.566406 32.722656 -42.070312 32.722656 -44.136719 C 32.722656 -46.089844 32.195312 -47.554688 31.140625 -48.535156 C 30.011719 -49.585938 28.867188 -50.109375 27.707031 -50.109375 Z M 27.707031 -57.273438 C 30.746094 -57.273438 33.519531 -56.109375 36.019531 -53.785156 C 38.597656 -51.386719 39.886719 -48.171875 39.886719 -44.136719 C 39.886719 -39.960938 38.589844 -36.691406 35.996094 -34.324219 C 33.496094 -32.046875 30.734375 -30.90625 27.707031 -30.90625 L 16.480469 -30.90625 L 16.480469 -57.273438 Z M 27.707031 -57.273438 "/></g></g></g><g fill="#03dba4" fill-opacity="1"><g transform="translate(240.106534, 91.046969)"><g><path d="M 36.925781 -51.972656 L 36.925781 3.582031 L 15.429688 3.582031 L 15.429688 -51.972656 L 19.011719 -51.972656 L 19.011719 -48.390625 L -3.105469 -48.390625 L -3.105469 -68.546875 L 55.460938 -68.546875 L 55.460938 -48.390625 L 33.34375 -48.390625 L 33.34375 -51.972656 Z M 29.757812 -55.554688 L 51.875 -55.554688 L 51.875 -51.972656 L 48.292969 -51.972656 L 48.292969 -64.964844 L 51.875 -64.964844 L 51.875 -61.382812 L 0.476562 -61.382812 L 0.476562 -64.964844 L 4.0625 -64.964844 L 4.0625 -51.972656 L 0.476562 -51.972656 L 0.476562 -55.554688 L 22.59375 -55.554688 L 22.59375 0 L 19.011719 0 L 19.011719 -3.582031 L 33.34375 -3.582031 L 33.34375 0 L 29.757812 0 Z M 29.757812 -55.554688 "/></g></g></g><g fill="#03dba4" fill-opacity="1"><g transform="translate(292.456343, 91.046969)"><g><path d="M 30.953125 -13.710938 C 32.167969 -13.710938 33.515625 -13.90625 34.996094 -14.304688 C 36.257812 -14.640625 37.335938 -15.191406 38.230469 -15.957031 C 38.695312 -16.355469 38.929688 -16.960938 38.929688 -17.769531 C 38.929688 -18.398438 38.699219 -18.894531 38.238281 -19.257812 C 37.214844 -20.066406 35.796875 -20.757812 33.988281 -21.324219 C 31.847656 -21.996094 29.503906 -22.625 26.953125 -23.210938 C 24.210938 -23.835938 21.453125 -24.597656 18.679688 -25.488281 C 15.71875 -26.441406 12.996094 -27.695312 10.511719 -29.257812 C 7.8125 -30.957031 5.628906 -33.15625 3.96875 -35.863281 C 2.246094 -38.664062 1.386719 -42.125 1.386719 -46.238281 C 1.386719 -50.25 2.242188 -53.757812 3.957031 -56.757812 C 5.625 -59.675781 7.84375 -62.101562 10.605469 -64.03125 C 13.269531 -65.894531 16.246094 -67.277344 19.542969 -68.179688 C 22.75 -69.0625 25.980469 -69.503906 29.234375 -69.503906 C 34.109375 -69.503906 38.6875 -68.730469 42.964844 -67.1875 C 47.476562 -65.5625 51.167969 -62.976562 54.039062 -59.433594 C 57.003906 -55.777344 58.558594 -51.058594 58.707031 -45.28125 L 58.800781 -41.605469 L 38.070312 -41.605469 L 37.710938 -44.785156 C 37.453125 -47.054688 36.804688 -48.53125 35.761719 -49.222656 C 34.386719 -50.132812 32.273438 -50.585938 29.425781 -50.585938 C 28.4375 -50.585938 27.359375 -50.414062 26.195312 -50.066406 C 25.242188 -49.78125 24.445312 -49.339844 23.804688 -48.738281 C 23.507812 -48.460938 23.359375 -48.007812 23.359375 -47.386719 C 23.359375 -47.144531 23.394531 -46.960938 23.460938 -46.828125 C 23.535156 -46.691406 23.671875 -46.550781 23.878906 -46.40625 C 24.921875 -45.679688 26.367188 -45.054688 28.210938 -44.527344 C 30.363281 -43.910156 32.738281 -43.324219 35.335938 -42.769531 C 38.117188 -42.171875 40.882812 -41.445312 43.632812 -40.582031 C 46.582031 -39.660156 49.308594 -38.394531 51.808594 -36.785156 C 54.507812 -35.050781 56.6875 -32.792969 58.34375 -30.019531 C 60.050781 -27.160156 60.90625 -23.621094 60.90625 -19.394531 C 60.90625 -14.9375 59.984375 -11.097656 58.140625 -7.871094 C 56.316406 -4.679688 53.859375 -2.109375 50.777344 -0.167969 C 47.863281 1.667969 44.601562 3.011719 41 3.867188 C 37.511719 4.695312 33.972656 5.113281 30.378906 5.113281 C 25.15625 5.113281 20.246094 4.21875 15.65625 2.429688 C 10.863281 0.5625 6.96875 -2.324219 3.984375 -6.230469 C 0.921875 -10.238281 -0.644531 -15.277344 -0.714844 -21.355469 L -0.761719 -24.984375 L 20.800781 -24.984375 L 20.964844 -21.574219 C 21.097656 -18.882812 22.007812 -16.960938 23.699219 -15.816406 C 25.765625 -14.410156 28.183594 -13.710938 30.953125 -13.710938 Z M 30.953125 -6.542969 C 26.71875 -6.542969 22.957031 -7.65625 19.675781 -9.882812 C 16.015625 -12.367188 14.058594 -16.148438 13.808594 -21.222656 L 17.386719 -21.398438 L 17.386719 -17.816406 L 2.867188 -17.816406 L 2.867188 -21.398438 L 6.449219 -21.441406 C 6.503906 -16.949219 7.578125 -13.328125 9.679688 -10.582031 C 11.851562 -7.738281 14.710938 -5.628906 18.257812 -4.246094 C 22.011719 -2.785156 26.050781 -2.054688 30.378906 -2.054688 C 33.414062 -2.054688 36.402344 -2.402344 39.34375 -3.105469 C 42.175781 -3.777344 44.714844 -4.820312 46.957031 -6.234375 C 49.03125 -7.539062 50.6875 -9.269531 51.917969 -11.425781 C 53.132812 -13.550781 53.738281 -16.207031 53.738281 -19.394531 C 53.738281 -22.300781 53.222656 -24.617188 52.191406 -26.347656 C 51.109375 -28.15625 49.691406 -29.628906 47.933594 -30.757812 C 45.972656 -32.015625 43.828125 -33.011719 41.492188 -33.746094 C 38.953125 -34.539062 36.398438 -35.210938 33.832031 -35.761719 C 31.078125 -36.351562 28.550781 -36.976562 26.242188 -37.636719 C 23.632812 -38.382812 21.476562 -39.347656 19.78125 -40.53125 C 18.617188 -41.339844 17.730469 -42.332031 17.117188 -43.5 C 16.5 -44.675781 16.191406 -45.96875 16.191406 -47.386719 C 16.191406 -50.074219 17.09375 -52.265625 18.898438 -53.960938 C 20.363281 -55.335938 22.113281 -56.328125 24.152344 -56.933594 C 25.980469 -57.480469 27.738281 -57.753906 29.425781 -57.753906 C 33.710938 -57.753906 37.140625 -56.902344 39.714844 -55.199219 C 42.617188 -53.277344 44.324219 -50.074219 44.832031 -45.589844 L 41.273438 -45.1875 L 41.273438 -48.773438 L 55.125 -48.773438 L 55.125 -45.1875 L 51.542969 -45.097656 C 51.4375 -49.253906 50.414062 -52.527344 48.472656 -54.921875 C 46.4375 -57.429688 43.792969 -59.273438 40.535156 -60.449219 C 37.042969 -61.707031 33.273438 -62.335938 29.234375 -62.335938 C 26.625 -62.335938 24.027344 -61.980469 21.441406 -61.269531 C 18.941406 -60.582031 16.699219 -59.546875 14.710938 -58.160156 C 12.824219 -56.839844 11.316406 -55.191406 10.179688 -53.203125 C 9.09375 -51.300781 8.550781 -48.980469 8.550781 -46.238281 C 8.550781 -43.476562 9.058594 -41.265625 10.074219 -39.613281 C 11.152344 -37.859375 12.570312 -36.429688 14.328125 -35.324219 C 16.300781 -34.082031 18.484375 -33.078125 20.871094 -32.3125 C 23.449219 -31.484375 26.011719 -30.777344 28.554688 -30.195312 C 31.289062 -29.570312 33.816406 -28.890625 36.136719 -28.164062 C 38.785156 -27.328125 40.96875 -26.234375 42.683594 -24.878906 C 44.957031 -23.078125 46.097656 -20.710938 46.097656 -17.769531 C 46.097656 -14.757812 45.023438 -12.335938 42.882812 -10.507812 C 41.164062 -9.042969 39.152344 -8 36.847656 -7.382812 C 34.761719 -6.824219 32.796875 -6.542969 30.953125 -6.542969 Z M 30.953125 -6.542969 "/></g></g></g><g fill="#ffffff" fill-opacity="1"><g transform="translate(2.335212, 91.046969)"><g><path d="M 30.953125 -10.125 C 32.484375 -10.125 34.140625 -10.363281 35.921875 -10.84375 C 37.703125 -11.320312 39.242188 -12.117188 40.546875 -13.234375 C 41.859375 -14.347656 42.515625 -15.859375 42.515625 -17.765625 C 42.515625 -19.546875 41.828125 -20.976562 40.453125 -22.0625 C 39.085938 -23.144531 37.289062 -24.035156 35.0625 -24.734375 C 32.832031 -25.441406 30.394531 -26.097656 27.75 -26.703125 C 25.101562 -27.304688 22.441406 -28.035156 19.765625 -28.890625 C 17.097656 -29.753906 14.648438 -30.882812 12.421875 -32.28125 C 10.191406 -33.6875 8.390625 -35.503906 7.015625 -37.734375 C 5.648438 -39.960938 4.96875 -42.796875 4.96875 -46.234375 C 4.96875 -49.609375 5.664062 -52.519531 7.0625 -54.96875 C 8.46875 -57.425781 10.332031 -59.46875 12.65625 -61.09375 C 14.976562 -62.71875 17.585938 -63.925781 20.484375 -64.71875 C 23.390625 -65.519531 26.304688 -65.921875 29.234375 -65.921875 C 33.691406 -65.921875 37.863281 -65.21875 41.75 -63.8125 C 45.632812 -62.414062 48.800781 -60.203125 51.25 -57.171875 C 53.707031 -54.148438 55 -50.15625 55.125 -45.1875 L 41.265625 -45.1875 C 40.890625 -48.5625 39.710938 -50.898438 37.734375 -52.203125 C 35.753906 -53.515625 32.984375 -54.171875 29.421875 -54.171875 C 28.085938 -54.171875 26.671875 -53.945312 25.171875 -53.5 C 23.671875 -53.050781 22.394531 -52.332031 21.34375 -51.34375 C 20.300781 -50.363281 19.78125 -49.046875 19.78125 -47.390625 C 19.78125 -45.734375 20.460938 -44.425781 21.828125 -43.46875 C 23.191406 -42.507812 24.988281 -41.710938 27.21875 -41.078125 C 29.445312 -40.441406 31.898438 -39.835938 34.578125 -39.265625 C 37.253906 -38.691406 39.914062 -37.988281 42.5625 -37.15625 C 45.207031 -36.332031 47.640625 -35.203125 49.859375 -33.765625 C 52.085938 -32.335938 53.882812 -30.476562 55.25 -28.1875 C 56.625 -25.894531 57.3125 -22.960938 57.3125 -19.390625 C 57.3125 -15.566406 56.546875 -12.316406 55.015625 -9.640625 C 53.492188 -6.972656 51.441406 -4.828125 48.859375 -3.203125 C 46.285156 -1.578125 43.390625 -0.382812 40.171875 0.375 C 36.953125 1.144531 33.6875 1.53125 30.375 1.53125 C 25.601562 1.53125 21.128906 0.71875 16.953125 -0.90625 C 12.785156 -2.53125 9.410156 -5.03125 6.828125 -8.40625 C 4.253906 -11.78125 2.929688 -16.113281 2.859375 -21.40625 L 17.390625 -21.40625 C 17.578125 -17.519531 19.007812 -14.664062 21.6875 -12.84375 C 24.363281 -11.03125 27.453125 -10.125 30.953125 -10.125 Z M 30.953125 -10.125 "/></g></g></g><g fill="#ffffff" fill-opacity="1"><g transform="translate(62.518384, 91.046969)"><g><path d="M 20.0625 -23.21875 L 20.0625 0 L 5.734375 0 L 5.734375 -64.96875 L 30.09375 -64.96875 C 33.59375 -64.96875 36.851562 -64.085938 39.875 -62.328125 C 42.90625 -60.578125 45.34375 -58.140625 47.1875 -55.015625 C 49.039062 -51.898438 49.96875 -48.273438 49.96875 -44.140625 C 49.96875 -39.742188 49.039062 -35.984375 47.1875 -32.859375 C 45.34375 -29.742188 42.90625 -27.359375 39.875 -25.703125 C 36.851562 -24.046875 33.59375 -23.21875 30.09375 -23.21875 Z M 27.703125 -53.6875 L 20.0625 -53.6875 L 20.0625 -34.484375 L 27.703125 -34.484375 C 29.804688 -34.484375 31.765625 -35.3125 33.578125 -36.96875 C 35.390625 -38.625 36.296875 -41.015625 36.296875 -44.140625 C 36.296875 -47.128906 35.390625 -49.46875 33.578125 -51.15625 C 31.765625 -52.84375 29.804688 -53.6875 27.703125 -53.6875 Z M 27.703125 -53.6875 "/></g></g></g><g fill="#ffffff" fill-opacity="1"><g transform="translate(113.912917, 91.046969)"><g><path d="M 55.890625 -32.578125 C 55.890625 -35.953125 54.992188 -39.085938 53.203125 -41.984375 C 51.421875 -44.878906 49.082031 -47.21875 46.1875 -49 C 43.289062 -50.789062 40.15625 -51.6875 36.78125 -51.6875 C 33.46875 -51.6875 30.34375 -50.789062 27.40625 -49 C 24.476562 -47.21875 22.125 -44.878906 20.34375 -41.984375 C 18.5625 -39.085938 17.671875 -35.953125 17.671875 -32.578125 C 17.671875 -29.265625 18.5625 -26.140625 20.34375 -23.203125 C 22.125 -20.273438 24.476562 -17.90625 27.40625 -16.09375 C 30.34375 -14.28125 33.46875 -13.375 36.78125 -13.375 C 40.15625 -13.375 43.289062 -14.28125 46.1875 -16.09375 C 49.082031 -17.90625 51.421875 -20.273438 53.203125 -23.203125 C 54.992188 -26.140625 55.890625 -29.265625 55.890625 -32.578125 Z M 70.21875 -32.484375 C 70.21875 -28.023438 69.320312 -23.769531 67.53125 -19.71875 C 65.75 -15.675781 63.3125 -12.109375 60.21875 -9.015625 C 57.132812 -5.929688 53.585938 -3.5 49.578125 -1.71875 C 45.566406 0.0625 41.300781 0.953125 36.78125 0.953125 C 32.320312 0.953125 28.066406 0.0625 24.015625 -1.71875 C 19.972656 -3.5 16.40625 -5.929688 13.3125 -9.015625 C 10.226562 -12.109375 7.796875 -15.675781 6.015625 -19.71875 C 4.234375 -23.769531 3.34375 -28.023438 3.34375 -32.484375 C 3.34375 -37.003906 4.234375 -41.269531 6.015625 -45.28125 C 7.796875 -49.289062 10.226562 -52.835938 13.3125 -55.921875 C 16.40625 -59.015625 19.972656 -61.453125 24.015625 -63.234375 C 28.066406 -65.023438 32.320312 -65.921875 36.78125 -65.921875 C 41.300781 -65.921875 45.566406 -65.023438 49.578125 -63.234375 C 53.585938 -61.453125 57.132812 -59.015625 60.21875 -55.921875 C 63.3125 -52.835938 65.75 -49.289062 67.53125 -45.28125 C 69.320312 -41.269531 70.21875 -37.003906 70.21875 -32.484375 Z M 70.21875 -32.484375 "/></g></g></g><g fill="#ffffff" fill-opacity="1"><g transform="translate(187.470133, 91.046969)"><g><path d="M 20.0625 -23.21875 L 20.0625 0 L 5.734375 0 L 5.734375 -64.96875 L 30.09375 -64.96875 C 33.59375 -64.96875 36.851562 -64.085938 39.875 -62.328125 C 42.90625 -60.578125 45.34375 -58.140625 47.1875 -55.015625 C 49.039062 -51.898438 49.96875 -48.273438 49.96875 -44.140625 C 49.96875 -40.503906 49.296875 -37.285156 47.953125 -34.484375 C 46.617188 -31.679688 44.835938 -29.390625 42.609375 -27.609375 C 40.378906 -25.828125 37.894531 -24.582031 35.15625 -23.875 L 53.78125 0 L 35.640625 0 L 20.15625 -23.21875 Z M 27.703125 -53.6875 L 20.0625 -53.6875 L 20.0625 -34.484375 L 27.703125 -34.484375 C 29.804688 -34.484375 31.765625 -35.3125 33.578125 -36.96875 C 35.390625 -38.625 36.296875 -41.015625 36.296875 -44.140625 C 36.296875 -47.128906 35.390625 -49.46875 33.578125 -51.15625 C 31.765625 -52.84375 29.804688 -53.6875 27.703125 -53.6875 Z M 27.703125 -53.6875 "/></g></g></g><g fill="#ffffff" fill-opacity="1"><g transform="translate(240.106534, 91.046969)"><g><path d="M 33.34375 -51.96875 L 33.34375 0 L 19.015625 0 L 19.015625 -51.96875 L 0.484375 -51.96875 L 0.484375 -64.96875 L 51.875 -64.96875 L 51.875 -51.96875 Z M 33.34375 -51.96875 "/></g></g></g><g fill="#ffffff" fill-opacity="1"><g transform="translate(292.456343, 91.046969)"><g><path d="M 30.953125 -10.125 C 32.484375 -10.125 34.140625 -10.363281 35.921875 -10.84375 C 37.703125 -11.320312 39.242188 -12.117188 40.546875 -13.234375 C 41.859375 -14.347656 42.515625 -15.859375 42.515625 -17.765625 C 42.515625 -19.546875 41.828125 -20.976562 40.453125 -22.0625 C 39.085938 -23.144531 37.289062 -24.035156 35.0625 -24.734375 C 32.832031 -25.441406 30.394531 -26.097656 27.75 -26.703125 C 25.101562 -27.304688 22.441406 -28.035156 19.765625 -28.890625 C 17.097656 -29.753906 14.648438 -30.882812 12.421875 -32.28125 C 10.191406 -33.6875 8.390625 -35.503906 7.015625 -37.734375 C 5.648438 -39.960938 4.96875 -42.796875 4.96875 -46.234375 C 4.96875 -49.609375 5.664062 -52.519531 7.0625 -54.96875 C 8.46875 -57.425781 10.332031 -59.46875 12.65625 -61.09375 C 14.976562 -62.71875 17.585938 -63.925781 20.484375 -64.71875 C 23.390625 -65.519531 26.304688 -65.921875 29.234375 -65.921875 C 33.691406 -65.921875 37.863281 -65.21875 41.75 -63.8125 C 45.632812 -62.414062 48.800781 -60.203125 51.25 -57.171875 C 53.707031 -54.148438 55 -50.15625 55.125 -45.1875 L 41.265625 -45.1875 C 40.890625 -48.5625 39.710938 -50.898438 37.734375 -52.203125 C 35.753906 -53.515625 32.984375 -54.171875 29.421875 -54.171875 C 28.085938 -54.171875 26.671875 -53.945312 25.171875 -53.5 C 23.671875 -53.050781 22.394531 -52.332031 21.34375 -51.34375 C 20.300781 -50.363281 19.78125 -49.046875 19.78125 -47.390625 C 19.78125 -45.734375 20.460938 -44.425781 21.828125 -43.46875 C 23.191406 -42.507812 24.988281 -41.710938 27.21875 -41.078125 C 29.445312 -40.441406 31.898438 -39.835938 34.578125 -39.265625 C 37.253906 -38.691406 39.914062 -37.988281 42.5625 -37.15625 C 45.207031 -36.332031 47.640625 -35.203125 49.859375 -33.765625 C 52.085938 -32.335938 53.882812 -30.476562 55.25 -28.1875 C 56.625 -25.894531 57.3125 -22.960938 57.3125 -19.390625 C 57.3125 -15.566406 56.546875 -12.316406 55.015625 -9.640625 C 53.492188 -6.972656 51.441406 -4.828125 48.859375 -3.203125 C 46.285156 -1.578125 43.390625 -0.382812 40.171875 0.375 C 36.953125 1.144531 33.6875 1.53125 30.375 1.53125 C 25.601562 1.53125 21.128906 0.71875 16.953125 -0.90625 C 12.785156 -2.53125 9.410156 -5.03125 6.828125 -8.40625 C 4.253906 -11.78125 2.929688 -16.113281 2.859375 -21.40625 L 17.390625 -21.40625 C 17.578125 -17.519531 19.007812 -14.664062 21.6875 -12.84375 C 24.363281 -11.03125 27.453125 -10.125 30.953125 -10.125 Z M 30.953125 -10.125 "/></g></g></g></g></g><g transform="matrix(1, 0, 0, 1, 98, 174)"><g clip-path="url(#9161a72b26)"><g fill="#03dba4" fill-opacity="1"><g transform="translate(0.784747, 91.306975)"><g><path d="M 41.460938 -68.546875 L 60.332031 -68.546875 L 60.332031 3.582031 L 37.878906 3.582031 L 37.878906 -26.082031 L 41.460938 -26.082031 L 41.460938 -22.5 L 20.0625 -22.5 L 20.0625 -26.082031 L 23.644531 -26.082031 L 23.644531 3.582031 L 2.148438 3.582031 L 2.148438 -68.546875 L 23.644531 -68.546875 L 23.644531 -39.074219 L 20.0625 -39.074219 L 20.0625 -42.65625 L 41.460938 -42.65625 L 41.460938 -39.074219 L 37.878906 -39.074219 L 37.878906 -68.546875 Z M 41.460938 -61.382812 L 41.460938 -64.964844 L 45.046875 -64.964844 L 45.046875 -35.492188 L 16.480469 -35.492188 L 16.480469 -64.964844 L 20.0625 -64.964844 L 20.0625 -61.382812 L 5.730469 -61.382812 L 5.730469 -64.964844 L 9.316406 -64.964844 L 9.316406 0 L 5.730469 0 L 5.730469 -3.582031 L 20.0625 -3.582031 L 20.0625 0 L 16.480469 0 L 16.480469 -29.664062 L 45.046875 -29.664062 L 45.046875 0 L 41.460938 0 L 41.460938 -3.582031 L 56.75 -3.582031 L 56.75 0 L 53.164062 0 L 53.164062 -64.964844 L 56.75 -64.964844 L 56.75 -61.382812 Z M 41.460938 -61.382812 "/></g></g></g><g fill="#03dba4" fill-opacity="1"><g transform="translate(63.260621, 91.306975)"><g><path d="M 43.660156 -68.546875 L 61.574219 -68.546875 L 61.574219 -25.316406 C 61.574219 -15.621094 58.839844 -8.207031 53.375 -3.074219 C 47.972656 2 40.5625 4.539062 31.144531 4.539062 C 21.726562 4.539062 14.320312 2 8.914062 -3.074219 C 3.449219 -8.207031 0.714844 -15.621094 0.714844 -25.316406 L 0.714844 -68.546875 L 22.210938 -68.546875 L 22.210938 -27.417969 C 22.210938 -23.726562 22.867188 -20.964844 24.171875 -19.136719 C 25.210938 -17.683594 27.535156 -16.957031 31.144531 -16.957031 C 34.808594 -16.957031 37.140625 -17.675781 38.148438 -19.109375 C 39.433594 -20.945312 40.078125 -23.714844 40.078125 -27.417969 L 40.078125 -68.546875 Z M 43.660156 -61.382812 L 43.660156 -64.964844 L 47.242188 -64.964844 L 47.242188 -27.417969 C 47.242188 -22.207031 46.167969 -18.066406 44.015625 -14.996094 C 41.582031 -11.527344 37.292969 -9.792969 31.144531 -9.792969 C 25.074219 -9.792969 20.808594 -11.519531 18.339844 -14.96875 C 16.144531 -18.046875 15.046875 -22.195312 15.046875 -27.417969 L 15.046875 -64.964844 L 18.628906 -64.964844 L 18.628906 -61.382812 L 4.300781 -61.382812 L 4.300781 -64.964844 L 7.882812 -64.964844 L 7.882812 -25.316406 C 7.882812 -17.6875 9.863281 -12.015625 13.820312 -8.296875 C 17.84375 -4.515625 23.621094 -2.628906 31.144531 -2.628906 C 38.667969 -2.628906 44.445312 -4.515625 48.46875 -8.296875 C 52.425781 -12.015625 54.40625 -17.6875 54.40625 -25.316406 L 54.40625 -64.964844 L 57.992188 -64.964844 L 57.992188 -61.382812 Z M 43.660156 -61.382812 "/></g></g></g><g fill="#03dba4" fill-opacity="1"><g transform="translate(125.545441, 91.306975)"><g><path d="M 33.484375 -19.011719 C 33.484375 -20.125 33.054688 -21.109375 32.195312 -21.972656 C 31.332031 -22.832031 30.316406 -23.261719 29.136719 -23.261719 L 20.0625 -23.261719 L 20.0625 -26.847656 L 23.644531 -26.847656 L 23.644531 -11.179688 L 20.0625 -11.179688 L 20.0625 -14.761719 L 29.136719 -14.761719 C 30.328125 -14.761719 31.355469 -15.183594 32.21875 -16.03125 C 33.0625 -16.855469 33.484375 -17.851562 33.484375 -19.011719 Z M 40.652344 -19.011719 C 40.652344 -15.84375 39.511719 -13.140625 37.234375 -10.910156 C 34.976562 -8.699219 32.277344 -7.59375 29.136719 -7.59375 L 16.480469 -7.59375 L 16.480469 -30.429688 L 29.136719 -30.429688 C 32.292969 -30.429688 35 -29.296875 37.261719 -27.039062 C 39.519531 -24.777344 40.652344 -22.101562 40.652344 -19.011719 Z M 28.996094 -46.144531 C 28.996094 -47.242188 28.605469 -48.171875 27.828125 -48.933594 C 27.027344 -49.714844 26.09375 -50.109375 25.03125 -50.109375 L 20.0625 -50.109375 L 20.0625 -53.691406 L 23.644531 -53.691406 L 23.644531 -38.597656 L 20.0625 -38.597656 L 20.0625 -42.179688 L 25.03125 -42.179688 C 26.078125 -42.179688 27.003906 -42.578125 27.800781 -43.375 C 28.597656 -44.171875 28.996094 -45.09375 28.996094 -46.144531 Z M 36.160156 -46.144531 C 36.160156 -43.117188 35.0625 -40.503906 32.867188 -38.308594 C 30.671875 -36.113281 28.058594 -35.011719 25.03125 -35.011719 L 16.480469 -35.011719 L 16.480469 -57.273438 L 25.03125 -57.273438 C 28.042969 -57.273438 30.644531 -56.203125 32.839844 -54.054688 C 35.054688 -51.886719 36.160156 -49.25 36.160156 -46.144531 Z M 55.269531 -18.628906 C 55.269531 -12.027344 53.195312 -6.675781 49.046875 -2.566406 C 44.910156 1.535156 39.230469 3.582031 32.003906 3.582031 L 2.148438 3.582031 L 2.148438 -68.546875 L 28.085938 -68.546875 C 32.386719 -68.546875 36.15625 -67.671875 39.394531 -65.917969 C 42.667969 -64.148438 45.21875 -61.761719 47.054688 -58.757812 C 48.898438 -55.734375 49.824219 -52.386719 49.824219 -48.722656 C 49.824219 -44.777344 48.980469 -41.332031 47.292969 -38.390625 C 45.539062 -35.328125 43.09375 -33.097656 39.964844 -31.695312 L 38.5 -34.964844 L 39.296875 -38.460938 C 43.660156 -37.464844 47.382812 -35.273438 50.464844 -31.882812 C 53.667969 -28.367188 55.269531 -23.949219 55.269531 -18.628906 Z M 48.101562 -18.628906 C 48.101562 -22.101562 47.125 -24.910156 45.167969 -27.0625 C 43.089844 -29.339844 40.605469 -30.8125 37.703125 -31.472656 L 27.25 -33.859375 L 37.039062 -38.238281 C 38.75 -39.003906 40.09375 -40.242188 41.078125 -41.957031 C 42.128906 -43.792969 42.65625 -46.046875 42.65625 -48.722656 C 42.65625 -51.046875 42.082031 -53.144531 40.9375 -55.023438 C 39.773438 -56.925781 38.125 -58.457031 35.984375 -59.617188 C 33.808594 -60.792969 31.175781 -61.382812 28.085938 -61.382812 L 5.730469 -61.382812 L 5.730469 -64.964844 L 9.316406 -64.964844 L 9.316406 0 L 5.730469 0 L 5.730469 -3.582031 L 32.003906 -3.582031 C 37.261719 -3.582031 41.261719 -4.941406 44.003906 -7.65625 C 46.734375 -10.363281 48.101562 -14.019531 48.101562 -18.628906 Z M 48.101562 -18.628906 "/></g></g></g><g fill="#ffffff" fill-opacity="1"><g transform="translate(0.784747, 91.306975)"><g><path d="M 41.453125 -64.96875 L 56.75 -64.96875 L 56.75 0 L 41.453125 0 L 41.453125 -26.078125 L 20.0625 -26.078125 L 20.0625 0 L 5.734375 0 L 5.734375 -64.96875 L 20.0625 -64.96875 L 20.0625 -39.078125 L 41.453125 -39.078125 Z M 41.453125 -64.96875 "/></g></g></g><g fill="#ffffff" fill-opacity="1"><g transform="translate(63.260621, 91.306975)"><g><path d="M 43.65625 -64.96875 L 57.984375 -64.96875 L 57.984375 -25.3125 C 57.984375 -16.65625 55.625 -10.113281 50.90625 -5.6875 C 46.195312 -1.257812 39.609375 0.953125 31.140625 0.953125 C 22.671875 0.953125 16.078125 -1.257812 11.359375 -5.6875 C 6.648438 -10.113281 4.296875 -16.65625 4.296875 -25.3125 L 4.296875 -64.96875 L 18.625 -64.96875 L 18.625 -27.421875 C 18.625 -22.960938 19.5 -19.503906 21.25 -17.046875 C 23 -14.597656 26.296875 -13.375 31.140625 -13.375 C 36.046875 -13.375 39.359375 -14.597656 41.078125 -17.046875 C 42.796875 -19.503906 43.65625 -22.960938 43.65625 -27.421875 Z M 43.65625 -64.96875 "/></g></g></g><g fill="#ffffff" fill-opacity="1"><g transform="translate(125.545441, 91.306975)"><g><path d="M 37.0625 -19.015625 C 37.0625 -21.109375 36.28125 -22.9375 34.71875 -24.5 C 33.164062 -26.0625 31.304688 -26.84375 29.140625 -26.84375 L 20.0625 -26.84375 L 20.0625 -11.171875 L 29.140625 -11.171875 C 31.304688 -11.171875 33.164062 -11.9375 34.71875 -13.46875 C 36.28125 -15 37.0625 -16.847656 37.0625 -19.015625 Z M 32.578125 -46.140625 C 32.578125 -48.242188 31.828125 -50.023438 30.328125 -51.484375 C 28.835938 -52.953125 27.070312 -53.6875 25.03125 -53.6875 L 20.0625 -53.6875 L 20.0625 -38.59375 L 25.03125 -38.59375 C 27.070312 -38.59375 28.835938 -39.335938 30.328125 -40.828125 C 31.828125 -42.328125 32.578125 -44.097656 32.578125 -46.140625 Z M 51.6875 -18.625 C 51.6875 -13.019531 49.960938 -8.515625 46.515625 -5.109375 C 43.078125 -1.703125 38.238281 0 32 0 L 5.734375 0 L 5.734375 -64.96875 L 28.09375 -64.96875 C 31.78125 -64.96875 34.976562 -64.234375 37.6875 -62.765625 C 40.394531 -61.296875 42.492188 -59.332031 43.984375 -56.875 C 45.484375 -54.425781 46.234375 -51.707031 46.234375 -48.71875 C 46.234375 -45.40625 45.546875 -42.554688 44.171875 -40.171875 C 42.804688 -37.785156 40.914062 -36.050781 38.5 -34.96875 C 42.125 -34.132812 45.226562 -32.300781 47.8125 -29.46875 C 50.394531 -26.632812 51.6875 -23.019531 51.6875 -18.625 Z M 51.6875 -18.625 "/></g></g></g></g></g><g transform="matrix(1, 0, 0, 1, 122, 85)"><g clip-path="url(#d0d7fc4b62)"><g fill="#ffffff" fill-opacity="1"><g transform="translate(1.689074, 91.046969)"><g><path d="M 52.304688 -32.578125 C 52.304688 -35.277344 51.589844 -37.789062 50.164062 -40.109375 C 48.675781 -42.523438 46.726562 -44.472656 44.3125 -45.957031 C 41.992188 -47.386719 39.480469 -48.101562 36.78125 -48.101562 C 34.140625 -48.101562 31.640625 -47.382812 29.28125 -45.949219 C 26.84375 -44.464844 24.882812 -42.519531 23.402344 -40.109375 C 21.972656 -37.789062 21.257812 -35.277344 21.257812 -32.578125 C 21.257812 -29.9375 21.976562 -27.4375 23.410156 -25.078125 C 24.894531 -22.636719 26.863281 -20.65625 29.304688 -19.144531 C 31.65625 -17.6875 34.148438 -16.957031 36.78125 -16.957031 C 39.472656 -16.957031 41.972656 -17.683594 44.289062 -19.132812 C 46.710938 -20.648438 48.664062 -22.632812 50.152344 -25.078125 C 51.589844 -27.4375 52.304688 -29.9375 52.304688 -32.578125 Z M 59.472656 -32.578125 C 59.472656 -28.597656 58.40625 -24.855469 56.273438 -21.351562 C 54.199219 -17.941406 51.46875 -15.175781 48.09375 -13.0625 C 44.613281 -10.882812 40.84375 -9.792969 36.78125 -9.792969 C 32.789062 -9.792969 29.039062 -10.878906 25.53125 -13.050781 C 22.117188 -15.167969 19.367188 -17.933594 17.289062 -21.351562 C 15.15625 -24.855469 14.089844 -28.597656 14.089844 -32.578125 C 14.089844 -36.628906 15.160156 -40.390625 17.296875 -43.867188 C 19.382812 -47.253906 22.136719 -49.988281 25.554688 -52.070312 C 29.058594 -54.203125 32.800781 -55.269531 36.78125 -55.269531 C 40.832031 -55.269531 44.597656 -54.199219 48.070312 -52.0625 C 51.453125 -49.980469 54.183594 -47.25 56.265625 -43.867188 C 58.402344 -40.390625 59.472656 -36.628906 59.472656 -32.578125 Z M 73.800781 -32.480469 C 73.800781 -27.519531 72.808594 -22.789062 70.824219 -18.28125 C 68.859375 -13.828125 66.175781 -9.898438 62.769531 -6.496094 C 59.367188 -3.09375 55.457031 -0.410156 51.039062 1.554688 C 46.5625 3.542969 41.808594 4.539062 36.78125 4.539062 C 31.820312 4.539062 27.085938 3.546875 22.582031 1.558594 C 18.128906 -0.40625 14.199219 -3.089844 10.792969 -6.496094 C 7.386719 -9.898438 4.703125 -13.828125 2.742188 -18.28125 C 0.753906 -22.789062 -0.238281 -27.519531 -0.238281 -32.480469 C -0.238281 -37.511719 0.753906 -42.265625 2.746094 -46.738281 C 4.707031 -51.15625 7.390625 -55.066406 10.792969 -58.46875 C 14.199219 -61.875 18.128906 -64.558594 22.582031 -66.523438 C 27.085938 -68.511719 31.820312 -69.503906 36.78125 -69.503906 C 41.808594 -69.503906 46.5625 -68.507812 51.039062 -66.519531 C 55.457031 -64.554688 59.367188 -61.871094 62.769531 -58.46875 C 66.171875 -55.066406 68.855469 -51.15625 70.820312 -46.738281 C 72.808594 -42.265625 73.800781 -37.511719 73.800781 -32.480469 Z M 66.636719 -32.480469 C 66.636719 -36.496094 65.847656 -40.28125 64.269531 -43.828125 C 62.667969 -47.4375 60.476562 -50.628906 57.703125 -53.402344 C 54.925781 -56.179688 51.734375 -58.367188 48.128906 -59.972656 C 44.578125 -61.546875 40.796875 -62.335938 36.78125 -62.335938 C 32.828125 -62.335938 29.058594 -61.546875 25.472656 -59.964844 C 21.835938 -58.363281 18.632812 -56.175781 15.859375 -53.402344 C 13.085938 -50.628906 10.894531 -47.4375 9.292969 -43.828125 C 7.714844 -40.28125 6.925781 -36.496094 6.925781 -32.480469 C 6.925781 -28.527344 7.71875 -24.757812 9.296875 -21.175781 C 10.898438 -17.539062 13.089844 -14.335938 15.859375 -11.5625 C 18.632812 -8.789062 21.835938 -6.601562 25.472656 -5 C 29.058594 -3.417969 32.828125 -2.628906 36.78125 -2.628906 C 40.796875 -2.628906 44.578125 -3.417969 48.128906 -4.992188 C 51.734375 -6.597656 54.925781 -8.785156 57.703125 -11.5625 C 60.476562 -14.335938 62.664062 -17.539062 64.265625 -21.175781 C 65.847656 -24.757812 66.636719 -28.527344 66.636719 -32.480469 Z M 66.636719 -32.480469 "/></g></g></g><g fill="#ffffff" fill-opacity="1"><g transform="translate(1.689074, 91.046969)"><g><path d="M 55.890625 -32.578125 C 55.890625 -35.953125 54.992188 -39.085938 53.203125 -41.984375 C 51.421875 -44.878906 49.082031 -47.21875 46.1875 -49 C 43.289062 -50.789062 40.15625 -51.6875 36.78125 -51.6875 C 33.46875 -51.6875 30.34375 -50.789062 27.40625 -49 C 24.476562 -47.21875 22.125 -44.878906 20.34375 -41.984375 C 18.5625 -39.085938 17.671875 -35.953125 17.671875 -32.578125 C 17.671875 -29.265625 18.5625 -26.140625 20.34375 -23.203125 C 22.125 -20.273438 24.476562 -17.90625 27.40625 -16.09375 C 30.34375 -14.28125 33.46875 -13.375 36.78125 -13.375 C 40.15625 -13.375 43.289062 -14.28125 46.1875 -16.09375 C 49.082031 -17.90625 51.421875 -20.273438 53.203125 -23.203125 C 54.992188 -26.140625 55.890625 -29.265625 55.890625 -32.578125 Z M 70.21875 -32.484375 C 70.21875 -28.023438 69.320312 -23.769531 67.53125 -19.71875 C 65.75 -15.675781 63.3125 -12.109375 60.21875 -9.015625 C 57.132812 -5.929688 53.585938 -3.5 49.578125 -1.71875 C 45.566406 0.0625 41.300781 0.953125 36.78125 0.953125 C 32.320312 0.953125 28.066406 0.0625 24.015625 -1.71875 C 19.972656 -3.5 16.40625 -5.929688 13.3125 -9.015625 C 10.226562 -12.109375 7.796875 -15.675781 6.015625 -19.71875 C 4.234375 -23.769531 3.34375 -28.023438 3.34375 -32.484375 C 3.34375 -37.003906 4.234375 -41.269531 6.015625 -45.28125 C 7.796875 -49.289062 10.226562 -52.835938 13.3125 -55.921875 C 16.40625 -59.015625 19.972656 -61.453125 24.015625 -63.234375 C 28.066406 -65.023438 32.320312 -65.921875 36.78125 -65.921875 C 41.300781 -65.921875 45.566406 -65.023438 49.578125 -63.234375 C 53.585938 -61.453125 57.132812 -59.015625 60.21875 -55.921875 C 63.3125 -52.835938 65.75 -49.289062 67.53125 -45.28125 C 69.320312 -41.269531 70.21875 -37.003906 70.21875 -32.484375 Z M 70.21875 -32.484375 "/></g></g></g></g></g><g clip-path="url(#7ffd6979e2)"><path fill="#03dba4" d="M 194.203125 144.671875 C 194.203125 144.714844 194.203125 144.753906 194.203125 144.800781 C 194.191406 148.738281 193.5 152.519531 192.246094 156.03125 C 192.078125 156.503906 191.898438 156.964844 191.707031 157.429688 C 189.878906 161.898438 187.121094 165.886719 183.675781 169.15625 C 180.226562 172.421875 176.085938 174.964844 171.5 176.554688 C 170.324219 176.960938 169.117188 177.304688 167.886719 177.578125 C 167.859375 177.585938 167.832031 177.589844 167.808594 177.597656 C 166.4375 177.902344 165.042969 178.121094 163.617188 178.25 C 162.589844 178.347656 161.542969 178.394531 160.488281 178.394531 C 157.035156 178.394531 153.699219 177.878906 150.5625 176.914062 C 149.765625 176.667969 148.984375 176.398438 148.21875 176.09375 C 141.285156 173.382812 135.46875 168.449219 131.644531 162.164062 C 131.011719 161.121094 130.433594 160.042969 129.910156 158.925781 C 127.988281 154.8125 126.875 150.246094 126.765625 145.429688 C 126.761719 145.175781 126.757812 144.929688 126.757812 144.675781 C 126.757812 144.421875 126.761719 144.171875 126.765625 143.925781 C 126.976562 134.296875 131.222656 125.660156 137.882812 119.648438 C 138.414062 119.164062 138.957031 118.703125 139.519531 118.257812 C 139.855469 117.992188 140.195312 117.734375 140.542969 117.480469 C 141.699219 116.628906 142.910156 115.851562 144.171875 115.152344 C 149.007812 112.472656 154.566406 110.949219 160.488281 110.949219 C 163.023438 110.949219 165.5 111.230469 167.878906 111.765625 C 169.113281 112.039062 170.320312 112.382812 171.5 112.792969 C 179.421875 115.527344 186.003906 121.128906 190.007812 128.363281 C 190.796875 129.785156 191.484375 131.269531 192.058594 132.8125 C 192.101562 132.917969 192.140625 133.027344 192.179688 133.136719 C 192.445312 133.867188 192.691406 134.605469 192.90625 135.359375 C 193.617188 137.847656 194.050781 140.457031 194.171875 143.140625 C 194.195312 143.644531 194.203125 144.160156 194.203125 144.671875 Z M 194.203125 144.671875 " fill-opacity="1" fill-rule="nonzero"/></g><path fill="#03dba4" d="M 145.914062 171.769531 C 146.613281 171.769531 146.613281 170.683594 145.914062 170.683594 C 145.21875 170.683594 145.214844 171.769531 145.914062 171.769531 Z M 145.914062 171.769531 " fill-opacity="1" fill-rule="nonzero"/><path fill="#03dba4" d="M 142.191406 169.484375 C 142.890625 169.484375 142.890625 168.402344 142.191406 168.402344 C 141.492188 168.402344 141.492188 169.484375 142.191406 169.484375 Z M 142.191406 169.484375 " fill-opacity="1" fill-rule="nonzero"/><path fill="#03dba4" d="M 145.554688 167.441406 C 146.253906 167.441406 146.253906 166.359375 145.554688 166.359375 C 144.855469 166.359375 144.855469 167.441406 145.554688 167.441406 Z M 145.554688 167.441406 " fill-opacity="1" fill-rule="nonzero"/><path fill="#03dba4" d="M 139.671875 164.4375 C 139.628906 164.4375 139.589844 164.4375 139.550781 164.4375 C 139.269531 164.4375 138.996094 164.6875 139.007812 164.980469 C 139.023438 165.273438 139.246094 165.523438 139.550781 165.523438 C 139.589844 165.523438 139.628906 165.523438 139.671875 165.523438 C 139.953125 165.523438 140.226562 165.273438 140.210938 164.980469 C 140.199219 164.6875 139.972656 164.4375 139.671875 164.4375 Z M 139.671875 164.4375 " fill-opacity="1" fill-rule="nonzero"/><path fill="#03dba4" d="M 142.914062 163.960938 C 143.613281 163.960938 143.613281 162.875 142.914062 162.875 C 142.214844 162.875 142.214844 163.960938 142.914062 163.960938 Z M 142.914062 163.960938 " fill-opacity="1" fill-rule="nonzero"/><path fill="#03dba4" d="M 135.949219 161.558594 C 136.644531 161.558594 136.644531 160.472656 135.949219 160.472656 C 135.25 160.476562 135.25 161.558594 135.949219 161.558594 Z M 135.949219 161.558594 " fill-opacity="1" fill-rule="nonzero"/><path fill="#03dba4" d="M 132.34375 158.558594 C 133.042969 158.558594 133.042969 157.472656 132.34375 157.472656 C 131.644531 157.472656 131.644531 158.558594 132.34375 158.558594 Z M 132.34375 158.558594 " fill-opacity="1" fill-rule="nonzero"/><path fill="#03dba4" d="M 150.117188 171.167969 C 150.816406 171.167969 150.816406 170.082031 150.117188 170.082031 C 149.421875 170.082031 149.421875 171.167969 150.117188 171.167969 Z M 150.117188 171.167969 " fill-opacity="1" fill-rule="nonzero"/><path fill="#03dba4" d="M 148.558594 173.925781 C 149.257812 173.925781 149.257812 172.84375 148.558594 172.84375 C 147.859375 172.847656 147.859375 173.925781 148.558594 173.925781 Z M 148.558594 173.925781 " fill-opacity="1" fill-rule="nonzero"/><path fill="#03dba4" d="M 158.164062 176.089844 C 158.863281 176.089844 158.863281 175.007812 158.164062 175.007812 C 157.46875 175.007812 157.46875 176.089844 158.164062 176.089844 Z M 158.164062 176.089844 " fill-opacity="1" fill-rule="nonzero"/><path fill="#03dba4" d="M 163.210938 175.488281 C 163.90625 175.488281 163.90625 174.40625 163.210938 174.40625 C 162.511719 174.40625 162.511719 175.488281 163.210938 175.488281 Z M 163.210938 175.488281 " fill-opacity="1" fill-rule="nonzero"/><path fill="#03dba4" d="M 167.292969 176.210938 C 167.988281 176.210938 167.988281 175.128906 167.292969 175.128906 C 166.597656 175.128906 166.59375 176.210938 167.292969 176.210938 Z M 167.292969 176.210938 " fill-opacity="1" fill-rule="nonzero"/><path fill="#03dba4" d="M 135.765625 164.019531 C 135.765625 164.058594 135.765625 164.097656 135.765625 164.136719 C 135.765625 164.421875 136.015625 164.691406 136.308594 164.679688 C 136.601562 164.667969 136.847656 164.441406 136.847656 164.136719 C 136.847656 164.097656 136.847656 164.058594 136.847656 164.019531 C 136.847656 163.734375 136.601562 163.464844 136.308594 163.476562 C 136.015625 163.488281 135.765625 163.714844 135.765625 164.019531 Z M 135.765625 164.019531 " fill-opacity="1" fill-rule="nonzero"/><path fill="#03dba4" d="M 138.769531 160.535156 C 138.769531 160.578125 138.769531 160.617188 138.769531 160.65625 C 138.769531 160.9375 139.015625 161.210938 139.308594 161.199219 C 139.605469 161.183594 139.851562 160.960938 139.851562 160.65625 C 139.851562 160.617188 139.851562 160.578125 139.851562 160.535156 C 139.851562 160.253906 139.605469 159.980469 139.308594 159.996094 C 139.015625 160.007812 138.769531 160.234375 138.769531 160.535156 Z M 138.769531 160.535156 " fill-opacity="1" fill-rule="nonzero"/><path fill="#03dba4" d="M 130.421875 154.59375 C 131.121094 154.59375 131.121094 153.511719 130.421875 153.511719 C 129.722656 153.511719 129.722656 154.59375 130.421875 154.59375 Z M 130.421875 154.59375 " fill-opacity="1" fill-rule="nonzero"/><path fill="#03dba4" d="M 153.902344 172.546875 C 153.902344 172.507812 153.902344 172.46875 153.902344 172.429688 C 153.902344 172.144531 153.65625 171.875 153.363281 171.886719 C 153.070312 171.898438 152.820312 172.125 152.820312 172.429688 C 152.820312 172.46875 152.820312 172.507812 152.820312 172.546875 C 152.820312 172.832031 153.070312 173.101562 153.363281 173.089844 C 153.65625 173.078125 153.902344 172.847656 153.902344 172.546875 Z M 153.902344 172.546875 " fill-opacity="1" fill-rule="nonzero"/><path fill="#ffffff" d="M 192.054688 132.808594 C 191.71875 132.664062 191.375 132.53125 191.03125 132.414062 C 186.453125 130.808594 181.28125 131.152344 176.847656 133.347656 C 175.269531 134.132812 173.804688 135.183594 172.257812 136.296875 C 169.464844 138.300781 166.578125 140.378906 162.789062 140.960938 C 156.949219 141.855469 151.742188 140.152344 147.734375 136.039062 C 143.449219 131.640625 140.8125 124.578125 140.539062 117.476562 C 141.691406 116.625 142.90625 115.847656 144.167969 115.148438 C 143.953125 121.390625 145.816406 128.890625 150.320312 133.519531 C 153.527344 136.808594 157.535156 138.109375 162.238281 137.386719 C 165.171875 136.9375 167.585938 135.203125 170.148438 133.363281 C 171.746094 132.214844 173.398438 131.023438 175.246094 130.113281 C 179.839844 127.835938 185.101562 127.230469 190.003906 128.359375 C 190.792969 129.785156 191.480469 131.269531 192.054688 132.808594 Z M 192.054688 132.808594 " fill-opacity="1" fill-rule="nonzero"/><g clip-path="url(#4e6f85b06c)"><path fill="#ffffff" d="M 167.804688 177.59375 C 166.433594 177.898438 165.039062 178.117188 163.613281 178.246094 C 163.308594 177.835938 163.03125 177.410156 162.785156 176.996094 C 161.917969 175.539062 161.316406 174 160.742188 172.515625 C 160.15625 171.015625 159.605469 169.597656 158.820312 168.355469 C 157.394531 166.105469 155.492188 164.179688 153.304688 162.789062 C 146.738281 158.605469 138.855469 159.933594 131.644531 162.160156 C 131.007812 161.117188 130.429688 160.039062 129.910156 158.921875 C 137.871094 156.398438 147.242188 154.640625 155.246094 159.742188 C 157.878906 161.417969 160.167969 163.734375 161.867188 166.425781 C 162.835938 167.964844 163.476562 169.613281 164.097656 171.203125 C 164.652344 172.613281 165.167969 173.945312 165.882812 175.140625 C 166.394531 175.996094 167.046875 176.863281 167.804688 177.59375 Z M 167.804688 177.59375 " fill-opacity="1" fill-rule="nonzero"/></g></svg>