<svg xmlns="http://www.w3.org/2000/svg" xmlns:xlink="http://www.w3.org/1999/xlink" width="512" zoomAndPan="magnify" viewBox="0 0 375 150" height="512" preserveAspectRatio="xMidYMid meet" version="1.0"><defs><clipPath id="a745bf01a4"><path d="M 54 35 L 208 35 L 208 149.007812 L 54 149.007812 Z M 54 35 " clip-rule="nonzero"/></clipPath><clipPath id="c9f7814223"><path d="M 250 143 L 275 143 L 275 149.007812 L 250 149.007812 Z M 250 143 " clip-rule="nonzero"/></clipPath><clipPath id="8e62d57a59"><path d="M 313 144 L 336 144 L 336 149.007812 L 313 149.007812 Z M 313 144 " clip-rule="nonzero"/></clipPath><clipPath id="3e0821ea76"><path d="M 285 132 L 314 132 L 314 149.007812 L 285 149.007812 Z M 285 132 " clip-rule="nonzero"/></clipPath><clipPath id="597b310396"><path d="M 224 12.875 L 373.757812 12.875 L 373.757812 149.007812 L 224 149.007812 Z M 224 12.875 " clip-rule="nonzero"/></clipPath></defs><path fill="#ffffff" d="M 352.949219 57.179688 C 351.011719 53.484375 348.601562 50.125 345.726562 47.101562 C 342.851562 44.078125 339.617188 41.503906 336.023438 39.382812 L 330.25 51.882812 L 350.988281 61.425781 Z M 352.949219 57.179688 " fill-opacity="1" fill-rule="nonzero"/><g clip-path="url(#a745bf01a4)"><path fill="#ffffff" d="M 207.167969 230.933594 L 206.117188 229.414062 C 205.125 227.976562 204.273438 226.464844 203.558594 224.871094 C 202.847656 223.28125 202.285156 221.636719 201.871094 219.941406 C 201.460938 218.246094 201.207031 216.527344 201.113281 214.785156 C 201.015625 213.042969 201.078125 211.308594 201.304688 209.578125 C 201.628906 207.050781 201.492188 204.550781 200.890625 202.074219 C 200.289062 199.597656 199.265625 197.3125 197.816406 195.214844 L 94.054688 44.859375 C 93.652344 44.277344 93.222656 43.71875 92.769531 43.183594 C 92.3125 42.644531 91.828125 42.128906 91.324219 41.640625 C 90.816406 41.148438 90.285156 40.683594 89.734375 40.246094 C 89.183594 39.808594 88.609375 39.398438 88.015625 39.015625 C 87.425781 38.632812 86.816406 38.28125 86.1875 37.957031 C 85.558594 37.636719 84.917969 37.34375 84.261719 37.082031 C 83.609375 36.824219 82.941406 36.597656 82.261719 36.402344 C 81.585938 36.207031 80.898438 36.046875 80.207031 35.917969 C 79.511719 35.792969 78.816406 35.699219 78.113281 35.640625 C 77.410156 35.582031 76.707031 35.554688 76 35.566406 C 75.292969 35.574219 74.59375 35.621094 73.890625 35.699219 C 73.191406 35.777344 72.496094 35.890625 71.804688 36.035156 C 71.117188 36.183594 70.433594 36.363281 69.761719 36.578125 C 69.089844 36.792969 68.429688 37.035156 67.78125 37.316406 C 67.132812 37.59375 66.5 37.902344 65.882812 38.242188 C 65.265625 38.582031 64.667969 38.953125 64.085938 39.351562 C 63.503906 39.75 62.945312 40.175781 62.40625 40.628906 C 61.867188 41.085938 61.351562 41.5625 60.859375 42.066406 C 60.371094 42.570312 59.902344 43.097656 59.464844 43.648438 C 59.023438 44.199219 58.613281 44.769531 58.230469 45.359375 C 57.847656 45.953125 57.492188 46.558594 57.167969 47.1875 C 56.84375 47.8125 56.550781 48.449219 56.292969 49.105469 C 56.03125 49.757812 55.804688 50.425781 55.609375 51.101562 C 55.414062 51.777344 55.25 52.464844 55.125 53.15625 C 54.996094 53.847656 54.902344 54.546875 54.84375 55.246094 C 54.785156 55.949219 54.757812 56.652344 54.769531 57.355469 C 54.777344 58.0625 54.824219 58.761719 54.902344 59.464844 C 54.980469 60.164062 55.09375 60.855469 55.242188 61.546875 C 55.390625 62.234375 55.570312 62.914062 55.785156 63.585938 C 56 64.257812 56.246094 64.914062 56.523438 65.5625 C 56.804688 66.207031 57.113281 66.839844 57.453125 67.457031 C 57.796875 68.074219 58.164062 68.671875 58.566406 69.25 L 125.585938 166.359375 C 129.632812 167.710938 133.574219 169.316406 137.414062 171.171875 C 141.257812 173.03125 144.964844 175.125 148.535156 177.453125 C 152.109375 179.785156 155.519531 182.332031 158.769531 185.097656 C 162.015625 187.867188 165.074219 190.828125 167.941406 193.984375 C 170.808594 197.140625 173.464844 200.46875 175.910156 203.96875 C 178.351562 207.464844 180.5625 211.101562 182.539062 214.882812 C 184.519531 218.660156 186.246094 222.550781 187.726562 226.554688 C 189.207031 230.554688 190.429688 234.632812 191.386719 238.789062 C 193.582031 236.746094 196.023438 235.058594 198.707031 233.71875 C 201.394531 232.382812 204.214844 231.453125 207.167969 230.933594 Z M 72.265625 62.335938 C 72.050781 62.476562 71.824219 62.597656 71.582031 62.695312 C 71.34375 62.796875 71.097656 62.871094 70.84375 62.917969 C 70.59375 62.96875 70.335938 62.996094 70.078125 62.992188 C 69.820312 62.992188 69.5625 62.96875 69.3125 62.917969 C 69.058594 62.867188 68.8125 62.792969 68.574219 62.691406 C 68.335938 62.59375 68.109375 62.472656 67.894531 62.328125 C 67.679688 62.183594 67.480469 62.019531 67.296875 61.835938 C 67.117188 61.65625 66.953125 61.457031 66.808594 61.242188 L 65.914062 59.890625 C 65.773438 59.675781 65.652344 59.449219 65.554688 59.210938 C 65.453125 58.972656 65.378906 58.726562 65.332031 58.472656 C 65.28125 58.21875 65.253906 57.960938 65.257812 57.703125 C 65.257812 57.445312 65.28125 57.191406 65.332031 56.9375 C 65.382812 56.683594 65.457031 56.4375 65.558594 56.199219 C 65.65625 55.960938 65.777344 55.734375 65.921875 55.519531 C 66.066406 55.304688 66.230469 55.105469 66.414062 54.925781 C 66.59375 54.742188 66.792969 54.578125 67.007812 54.4375 C 67.222656 54.292969 67.453125 54.171875 67.691406 54.074219 C 67.929688 53.976562 68.175781 53.902344 68.429688 53.851562 C 68.683594 53.800781 68.9375 53.777344 69.195312 53.777344 C 69.453125 53.777344 69.710938 53.804688 69.964844 53.855469 C 70.214844 53.90625 70.460938 53.980469 70.699219 54.078125 C 70.9375 54.179688 71.164062 54.300781 71.378906 54.445312 C 71.59375 54.585938 71.792969 54.75 71.976562 54.933594 C 72.15625 55.117188 72.320312 55.316406 72.464844 55.53125 L 73.363281 56.882812 C 73.503906 57.097656 73.625 57.324219 73.722656 57.5625 C 73.820312 57.800781 73.894531 58.046875 73.945312 58.300781 C 73.996094 58.554688 74.019531 58.808594 74.019531 59.066406 C 74.019531 59.328125 73.992188 59.582031 73.941406 59.835938 C 73.890625 60.089844 73.816406 60.335938 73.71875 60.574219 C 73.617188 60.8125 73.496094 61.039062 73.351562 61.253906 C 73.207031 61.464844 73.042969 61.664062 72.863281 61.847656 C 72.679688 62.027344 72.480469 62.191406 72.265625 62.335938 Z M 113.875 124.847656 C 113.660156 124.992188 113.433594 125.113281 113.195312 125.210938 C 112.957031 125.308594 112.710938 125.382812 112.457031 125.433594 C 112.203125 125.484375 111.949219 125.507812 111.691406 125.507812 C 111.429688 125.507812 111.175781 125.480469 110.921875 125.429688 C 110.667969 125.378906 110.421875 125.304688 110.183594 125.207031 C 109.945312 125.105469 109.71875 124.984375 109.503906 124.839844 C 109.292969 124.699219 109.09375 124.535156 108.910156 124.351562 C 108.726562 124.167969 108.566406 123.96875 108.421875 123.753906 L 74.78125 73.21875 C 74.636719 73.003906 74.511719 72.777344 74.410156 72.535156 C 74.304688 72.296875 74.230469 72.050781 74.175781 71.792969 C 74.121094 71.539062 74.09375 71.28125 74.09375 71.019531 C 74.089844 70.761719 74.117188 70.503906 74.164062 70.246094 C 74.214844 69.992188 74.289062 69.742188 74.386719 69.5 C 74.488281 69.261719 74.609375 69.03125 74.753906 68.8125 C 74.898438 68.597656 75.0625 68.398438 75.246094 68.210938 C 75.429688 68.027344 75.628906 67.863281 75.847656 67.71875 C 76.0625 67.574219 76.292969 67.453125 76.535156 67.355469 C 76.773438 67.257812 77.023438 67.183594 77.28125 67.132812 C 77.535156 67.082031 77.792969 67.058594 78.054688 67.0625 C 78.316406 67.0625 78.574219 67.089844 78.828125 67.144531 C 79.082031 67.195312 79.328125 67.273438 79.570312 67.375 C 79.808594 67.480469 80.035156 67.601562 80.25 67.75 C 80.464844 67.898438 80.664062 68.066406 80.847656 68.253906 C 81.027344 68.4375 81.1875 68.640625 81.332031 68.859375 L 114.972656 119.394531 C 115.261719 119.828125 115.453125 120.304688 115.554688 120.8125 C 115.65625 121.324219 115.65625 121.835938 115.554688 122.347656 C 115.449219 122.859375 115.253906 123.332031 114.964844 123.765625 C 114.671875 124.199219 114.3125 124.558594 113.878906 124.847656 Z M 113.875 124.847656 " fill-opacity="1" fill-rule="nonzero"/></g><path fill="#ffffff" d="M 297.316406 104.445312 L 276.574219 94.90625 L 268.628906 112.117188 L 289.367188 121.660156 Z M 297.316406 104.445312 " fill-opacity="1" fill-rule="nonzero"/><path fill="#ffffff" d="M 246.097656 142.148438 L 246.9375 140.328125 L 245.320312 139.582031 C 245.5625 140.445312 245.824219 141.300781 246.097656 142.148438 Z M 246.097656 142.148438 " fill-opacity="1" fill-rule="nonzero"/><path fill="#ffffff" d="M 243.414062 109.175781 C 242.484375 116.121094 242.464844 123.070312 243.359375 130.019531 L 250.234375 133.183594 L 258.179688 115.972656 Z M 243.414062 109.175781 " fill-opacity="1" fill-rule="nonzero"/><g clip-path="url(#c9f7814223)"><path fill="#ffffff" d="M 254.085938 143.617188 L 250.261719 151.898438 C 252.199219 155.597656 254.605469 158.957031 257.476562 161.984375 C 260.351562 165.011719 263.585938 167.585938 267.179688 169.710938 L 274.824219 153.15625 Z M 254.085938 143.617188 " fill-opacity="1" fill-rule="nonzero"/></g><g clip-path="url(#8e62d57a59)"><path fill="#ffffff" d="M 313.148438 162.132812 L 320.011719 165.292969 C 325.878906 161.445312 331.160156 156.917969 335.855469 151.710938 L 321.097656 144.917969 Z M 313.148438 162.132812 " fill-opacity="1" fill-rule="nonzero"/></g><g clip-path="url(#3e0821ea76)"><path fill="#ffffff" d="M 293.214844 132.089844 L 285.265625 149.304688 L 306.003906 158.84375 L 313.953125 141.632812 Z M 293.214844 132.089844 " fill-opacity="1" fill-rule="nonzero"/></g><g clip-path="url(#597b310396)"><path fill="#ffffff" d="M 341.515625 18.144531 C 337.699219 16.398438 333.742188 15.082031 329.636719 14.199219 C 325.535156 13.316406 321.386719 12.882812 317.191406 12.902344 C 285.921875 12.902344 252.59375 36.433594 235.238281 74.019531 C 222.746094 101.070312 220.691406 130.429688 229.597656 154.570312 C 235.886719 171.605469 246.988281 184.191406 261.707031 190.960938 C 298.308594 207.804688 345.984375 182.734375 367.984375 135.085938 C 380.476562 108.035156 382.53125 78.679688 373.625 54.539062 C 367.335938 37.5 356.234375 24.914062 341.515625 18.144531 Z M 358.859375 130.898438 C 343.992188 163.089844 315.378906 183.226562 288.472656 183.226562 C 281.109375 183.257812 274.082031 181.742188 267.390625 178.679688 C 254.582031 172.789062 244.945312 161.894531 239.515625 147.179688 C 231.894531 126.527344 233.660156 101.386719 244.363281 78.207031 C 263.234375 37.335938 304.273438 15.902344 335.835938 30.421875 C 348.640625 36.316406 358.277344 47.207031 363.710938 61.925781 C 371.332031 82.578125 369.5625 107.71875 358.859375 130.898438 Z M 358.859375 130.898438 " fill-opacity="1" fill-rule="nonzero"/></g><path fill="#ffffff" d="M 354.839844 71.851562 L 346.894531 89.066406 L 360.296875 95.234375 C 360.867188 88.007812 360.421875 80.84375 358.949219 73.742188 Z M 354.839844 71.851562 " fill-opacity="1" fill-rule="nonzero"/><path fill="#ffffff" d="M 335.644531 113.421875 L 354.128906 121.925781 C 356.476562 115.933594 358.195312 109.769531 359.289062 103.429688 L 343.59375 96.207031 Z M 335.644531 113.421875 " fill-opacity="1" fill-rule="nonzero"/><path fill="#ffffff" d="M 324.398438 137.777344 L 341.050781 145.441406 C 344.902344 140.335938 348.214844 134.902344 350.988281 129.140625 L 332.34375 120.566406 Z M 324.398438 137.777344 " fill-opacity="1" fill-rule="nonzero"/><path fill="#ffffff" d="M 308.5625 80.09375 L 287.820312 70.550781 L 279.875 87.761719 L 300.613281 97.304688 Z M 308.5625 80.09375 " fill-opacity="1" fill-rule="nonzero"/><path fill="#ffffff" d="M 347.691406 68.566406 L 326.953125 59.023438 L 319.003906 76.238281 L 339.742188 85.777344 Z M 347.691406 68.566406 " fill-opacity="1" fill-rule="nonzero"/><path fill="#ffffff" d="M 257.382812 136.472656 L 278.121094 146.015625 L 286.070312 128.800781 L 265.328125 119.261719 Z M 257.382812 136.472656 " fill-opacity="1" fill-rule="nonzero"/><path fill="#ffffff" d="M 269.429688 91.613281 L 250.808594 83.046875 C 248.21875 88.890625 246.226562 94.929688 244.824219 101.164062 L 261.484375 108.828125 Z M 269.429688 91.613281 " fill-opacity="1" fill-rule="nonzero"/><path fill="#ffffff" d="M 336.445312 92.921875 L 315.707031 83.378906 L 307.757812 100.59375 L 328.496094 110.132812 Z M 336.445312 92.921875 " fill-opacity="1" fill-rule="nonzero"/><path fill="#ffffff" d="M 328.875 36.101562 C 324.253906 34.492188 319.496094 33.695312 314.605469 33.707031 C 311.136719 33.722656 307.707031 34.09375 304.316406 34.828125 L 302.363281 39.050781 L 323.105469 48.59375 Z M 328.875 36.101562 " fill-opacity="1" fill-rule="nonzero"/><path fill="#ffffff" d="M 325.199219 117.277344 L 304.460938 107.734375 L 296.511719 124.949219 L 317.25 134.488281 Z M 325.199219 117.277344 " fill-opacity="1" fill-rule="nonzero"/><path fill="#ffffff" d="M 280.675781 67.261719 L 265.039062 60.070312 C 260.910156 65.011719 257.316406 70.316406 254.265625 75.984375 L 272.726562 84.480469 Z M 280.675781 67.261719 " fill-opacity="1" fill-rule="nonzero"/><path fill="#ffffff" d="M 291.921875 42.90625 L 287.851562 41.035156 C 281.507812 44.550781 275.773438 48.867188 270.640625 53.988281 L 283.972656 60.121094 Z M 291.921875 42.90625 " fill-opacity="1" fill-rule="nonzero"/><path fill="#ffffff" d="M 311.859375 72.949219 L 319.808594 55.734375 L 299.066406 46.195312 L 291.121094 63.40625 Z M 311.859375 72.949219 " fill-opacity="1" fill-rule="nonzero"/></svg>